/* XPM */
static char *cf40f45d05224d6c8c2e95f27272b6d7L7XHI0QRoEC57XSh[] = {
/* columns rows colors chars-per-pixel */
"50 50 102 2 ",
"   c #C8D45D",
".  c #C5D15C",
"X  c #BDC95A",
"o  c #B5C058",
"O  c #AFBA56",
"+  c #B6C258",
"@  c #BECA5A",
"#  c #C6D25D",
"$  c #C0CB5B",
"%  c #A5B054",
"&  c #8B944D",
"*  c #757D47",
"=  c #8E974E",
"-  c #A9B355",
";  c #C3CF5C",
":  c #BAC559",
">  c #8D964E",
",  c #606742",
"<  c #3C4138",
"1  c #666D43",
"2  c #939C4F",
"3  c #A8B255",
"4  c #7C834A",
"5  c #50543F",
"6  c #2C2D37",
"7  c #555A41",
"8  c #81894B",
"9  c #AEB856",
"0  c #BBC65A",
"q  c #C0CC5B",
"w  c #7A7D4D",
"e  c #787750",
"r  c #777252",
"t  c #78784F",
"y  c #7A7E4C",
"u  c #7C844A",
"i  c #909A4E",
"p  c #A8B355",
"a  c #A19A60",
"s  c #C2B66D",
"d  c #9C955E",
"f  c #73724D",
"g  c #4A4F3D",
"h  c #656D43",
"j  c #FFEE83",
"k  c #B8AE69",
"l  c #6D694E",
"z  c #222533",
"x  c #43493A",
"c  c #7D8549",
"v  c #B6C158",
"b  c #2C2D36",
"n  c #777151",
"m  c #C2B56C",
"M  c #FFEC81",
"N  c #B8AC68",
"B  c #6D684E",
"V  c #2C2A34",
"C  c #776446",
"Z  c #C29D59",
"A  c #FFCC68",
"S  c #B89656",
"D  c #6D5C44",
"F  c #222331",
"G  c #2C2731",
"H  c #77563C",
"J  c #C28546",
"K  c #FFAB4E",
"L  c #B87F44",
"P  c #6D503A",
"I  c #222130",
"U  c #2C242F",
"Y  c #774831",
"T  c #C26D33",
"R  c #FF8B35",
"E  c #B86833",
"W  c #6D4430",
"Q  c #221F2E",
"!  c #55533B",
"~  c #785A38",
"^  c #9C6134",
"/  c #B86731",
"(  c #976035",
")  c #745938",
"_  c #51523B",
"`  c #6B7345",
"'  c #939D4F",
"]  c #BBC75A",
"[  c #818548",
"{  c #7A6E40",
"}  c #735637",
"|  c #6D4330",
" . c #7B7141",
".. c #82884A",
"X. c #969F50",
"o. c #ABB656",
"O. c #C1CD5B",
"+. c #7C8148",
"@. c #4A4B3A",
"#. c #B4BF58",
"$. c #C4CF5C",
"%. c #C7D35D",
/* pixels */
"                                                                                                    ",
"                                                                                                    ",
"                                                                                                    ",
"                                                                                                    ",
"                                                                                                    ",
"                                                                                                    ",
"                                                                                                    ",
"                                                                                                    ",
"                                                                                                    ",
"                                                                                                    ",
"                                                                                                    ",
"                                                                                                    ",
"                                                                                                    ",
"                                                                                                    ",
"                                  . X o O O O O O O O + @ #                                         ",
"                                  $ % & * * * * * * * = - ;                                         ",
"                                  : > , < < < < < < < 1 2 $                                         ",
"                            . $ : 3 4 5 6 6 6 6 6 6 6 7 8 9 0 q #                                   ",
"                            X % > 4 w e r r r r r r r t y u i p q                                   ",
"                            o & , 5 e a s s s s s s s d f g h i 0                                   ",
"                            O * < 6 r s j j j j j j j k l z x c v                                   ",
"                            O * < 6 r s j j j j j j j k l z x c v                                   ",
"                            O * < 6 r s j j j j j j j k l z x c v                                   ",
"                            O * < b n m M M M M M M M N B z x c v                                   ",
"                            O * < V C Z A A A A A A A S D F x c v                                   ",
"                            O * < G H J K K K K K K K L P I x c v                                   ",
"                            O * < U Y T R R R R R R R E W Q x c v                                   ",
"                            + = 1 ! ~ ^ / / / / / / / ( ) _ ` ' ]                                   ",
"                            @ - 2 [ { } | | | | | | | )  ...X.o.O.                                  ",
"                            # ; $ 9 +.@.Q Q Q Q Q Q Q _ ..#.q $.%.                                  ",
"                                  0 i h x x x x x x x ` X.q                                         ",
"                                  q p i c c c c c c c ' o.$.                                        ",
"                                  # q 0 v v v v v v v ] O.%.                                        ",
"                                                                                                    ",
"                                                                                                    ",
"                                                                                                    ",
"                                                                                                    ",
"                                                                                                    ",
"                                                                                                    ",
"                                                                                                    ",
"                                                                                                    ",
"                                                                                                    ",
"                                                                                                    ",
"                                                                                                    ",
"                                                                                                    ",
"                                                                                                    ",
"                                                                                                    ",
"                                                                                                    ",
"                                                                                                    ",
"                                                                                                    "
};
