/* XPM */
static char *f9f05514a37943f1c85637f6d3bf6a35za7dEe3tzJ6cWhQp[] = {
/* columns rows colors chars-per-pixel */
"50 50 183 2 ",
"   c #14182E",
".  c #1A1A2F",
"X  c #1A1D33",
"o  c #161A30",
"O  c #291D33",
"+  c #3F1E34",
"@  c #1E2233",
"#  c #1F233A",
"$  c #252A33",
"%  c #22253B",
"&  c #232738",
"*  c #2D3235",
"=  c #363C37",
"-  c #333937",
";  c #411F35",
":  c #56253B",
">  c #63243A",
",  c #3C4238",
"<  c #545B3E",
"1  c #4C533D",
"2  c #252941",
"3  c #292D43",
"4  c #2C3047",
"5  c #2E3249",
"6  c #32354C",
"7  c #35384E",
"8  c #353948",
"9  c #363A52",
"0  c #3A3D53",
"q  c #3B3F58",
"w  c #552A40",
"e  c #3F435A",
"r  c #3D4055",
"t  c #3F4563",
"y  c #585F40",
"u  c #575D4D",
"i  c #404457",
"p  c #4A4E57",
"a  c #41455D",
"s  c #45495C",
"d  c #494C5E",
"f  c #51565A",
"g  c #54585C",
"h  c #4B5054",
"j  c #596040",
"k  c #5B624A",
"l  c #5F6556",
"z  c #606742",
"x  c #676E44",
"c  c #61684E",
"v  c #6B7345",
"b  c #747C47",
"n  c #696F56",
"m  c #6E7458",
"M  c #6B7254",
"N  c #424765",
"B  c #444963",
"V  c #4B4E64",
"C  c #474C6A",
"Z  c #4D516C",
"A  c #4D5063",
"S  c #515466",
"D  c #51546C",
"F  c #575B6D",
"G  c #4F5471",
"H  c #555973",
"J  c #5A5E74",
"K  c #5B5F78",
"L  c #53597C",
"P  c #514C63",
"I  c #785A6F",
"U  c #5D6176",
"Y  c #5C6078",
"T  c #626764",
"R  c #646A69",
"E  c #61657E",
"W  c #666A7A",
"Q  c #696D7C",
"!  c #616475",
"~  c #767B71",
"^  c #862F45",
"/  c #B13D52",
"(  c #9E6578",
")  c #7C8451",
"_  c #7B8449",
"`  c #8B944D",
"'  c #929B4F",
"]  c #868F51",
"[  c #889053",
"{  c #879054",
"}  c #818A4B",
"|  c #9AA451",
" . c #9EA852",
".. c #A1AB53",
"X. c #ABB555",
"o. c #AEB956",
"O. c #A6B154",
"+. c #B0BB57",
"@. c #B4BF58",
"#. c #BCC75A",
"$. c #BDC95A",
"%. c #C6D25D",
"&. c #C8D45D",
"*. c #5C6286",
"=. c #676B84",
"-. c #696D84",
";. c #646A8A",
":. c #6C7183",
">. c #6D718A",
",. c #717484",
"<. c #72758A",
"1. c #7B7D8D",
"2. c #767887",
"3. c #6C7296",
"4. c #727693",
"5. c #747893",
"6. c #71779D",
"7. c #797C98",
"8. c #777DA3",
"9. c #BE7081",
"0. c #C07484",
"q. c #7F828B",
"w. c #7E829B",
"e. c #7E8193",
"r. c #7D83A5",
"t. c #7F85A8",
"y. c #84878E",
"u. c #818493",
"i. c #8A8C9B",
"p. c #82869B",
"a. c #998A9E",
"s. c #BB899B",
"d. c #8286A2",
"f. c #898DA6",
"g. c #888DAB",
"h. c #848AAA",
"j. c #8F93AC",
"k. c #8F92A1",
"l. c #9395A2",
"z. c #9295AC",
"x. c #9B9DAC",
"c. c #8A8FB0",
"v. c #8D92B1",
"b. c #9196B3",
"n. c #9599B2",
"m. c #999DB2",
"M. c #969BB9",
"N. c #9A9EBA",
"B. c #9A8EA2",
"V. c #B29BAF",
"C. c #9FA1AE",
"Z. c #9EA3BD",
"A. c #A2A4B3",
"S. c #AAACBC",
"D. c #A3A6BA",
"F. c #B3B5BF",
"G. c #B6A7B8",
"H. c #CDA7B4",
"J. c #A2A6C0",
"K. c #A7AAC3",
"L. c #ABAEC5",
"P. c #ADB1C5",
"I. c #AFB2C9",
"U. c #B2B4C3",
"Y. c #B3B6CB",
"T. c #B6B9CC",
"R. c #BBBDCE",
"E. c #B8BAC5",
"W. c #BABDD0",
"Q. c #BFC1D2",
"!. c #BEC0CF",
"~. c #C2C4CE",
"^. c #C3C6D6",
"/. c #CBCCD5",
"(. c #C6C8D8",
"). c #CBCDDB",
"_. c #C5C7D8",
"`. c #CFD1DE",
"'. c #D2D4DE",
"]. c #D4D5E1",
"[. c #D7D8E3",
"{. c #DADCE5",
"}. c #DFE0E8",
/* pixels */
"&.&.&.&.&.&.&.&.&.&.&.&.&.&.o.b ,                                 , _ #.$.%.&.&.&.&.&.&.&.&.&.&.&.&.",
"&.&.&.&.&.&.&.&.&.&.&.&.&.&.o.b ,                                 , _ O.%.%.&.&.&.&.&.&.&.&.&.&.&.&.",
"&.&.&.&.&.&.&.&.&.&.%.#.o.| ` m f a B A S S S S S S S S S S A s e t ) )  .o.$.&.&.&.&.&.&.&.&.&.&.&.",
"&.&.&.&.&.&.&.&.%.%.%.#.' v k l Q >.e.i.l.l.l.l.l.k.l.l.l.l.p.e.q.Q g y v ' #.$.&.&.&.&.&.&.&.&.&.&.",
"&.&.&.&.&.&.&.&.&.&.&.X.b , 5 F w.Z.I.^.'.'.'.'.'.'.'.`.'.'.^.U.N.w.F r , _ X.$.&.&.&.&.&.&.&.&.&.&.",
"&.&.&.&.&.&.&.&.$.o. .` M h A <.m.T._.].}.}.}.}.}.}.}.}.}.}.].(.!.n.q.t e ) _ | #.$.&.&.&.&.&.&.&.&.",
"&.&.&.&.&.&.&.&.o.' b k T W 4.z.U.(.'.{.}.}.}.}.}.}.}.}.}.}.{.`.Q.!.j.e.W T c _ _ #.$.&.&.&.&.&.&.&.",
"&.&.&.&.&.&.&.&...b , r U p.D.Y.).{.{.}.}.}.}.}.}.}.}.}.}.}.}.}.[.Q.!.A.w.U r , _ O.%.&.&.&.&.&.&.&.",
"&.&.&.&.&.&.&.&...x * 5 Y f.L.W.'.}.}.}.}.}.}.}.}.}.}.}.}.}.}.}.}.`.Q.L.t.*.4 * x ..&.&.&.&.&.&.&.&.",
"&.&.&.&.&.&.&.&. .x * 5 K g.L.^.].}.}.}.}.}.}.}.}.}.}.}.}.}.}.}.}.].Q.I.t.Y 4 * x ..&.&.&.&.&.&.&.&.",
"&.&.&.&.&.&.&.&...x * 5 Y g.L.Q.'.}.}.}.}.}.}.}.}.}.}.}.}.}.}.}.}.`.Q.I.j.U 4 $ x ..&.&.&.&.&.&.&.&.",
"&.&.&.&.&.&.&.&...x * 5 H d.J.Y.(.].{.{.}.}.}.}.}.}.}.}.}.}.}.{.[.Q.!.J.r.J 4 , x ..&.&.&.&.&.&.&.&.",
"&.&.&.&.&.&.&.&...x * 3 G 3.v.J.T.^.`.[.}.}.}.}.}.}.}.}.}.}.'.`.Q.!.Z.b.w.G 3 * _  .%.&.&.&.&.&.&.&.",
"&.&.&.&.&.&.&.&. .x * 2 C ;.r.v.J.Y.Q.'.}.}.}.}.}.}.}.}.}.}.'.^.!.J.t.t.*.t 2 * z | &.&.&.&.&.&.&.&.",
"&.&.&.&.&.&.&.&...x * 2 t ;.8.r.g.n.I.^.[.{.{.}.}.}.}.}.{.[.^.P.b.t.r.r.*.t 2 * x ..&.&.&.&.&.&.&.&.",
"&.&.&.&.&.&.&.&...x * 3 Z 3.r.6.>.:.f.K.^.`.[.}.}.}.}.[.`.(.S.f.;.*.w.t.r.t 4 * x ..&.&.&.&.&.&.&.&.",
"&.&.&.&.&.&.&.&. .x * 4 H w.g.>.C e -.j.Y.^.].}.}.}.}.'.^.Y.z.=.q C >.g.0.L 4 * x ..%.&.&.&.&.&.&.&.",
"&.&.&.&.&.&.&.&...x * 5 Y f.j.W 6 % V 5.m.U.^.[.[.[.{.^.P.m.4.V % 7 =.g.t.L 5 * x ..&.&.&.&.&.&.&.&.",
"&.&.&.&.&.&.&.&...x * 5 Y g.j.*.5 # 9 Z >.f.K.(.(.(.(.K.f.>.D 9 X 9 =.j.t.E 4 * x ..&.&.&.&.&.&.&.&.",
"&.&.&.&.&.&.&.&. .x * 5 Y f.j.=.9 @ % 6 i =.j.Y.T.Y.Y.j.-.a 6 % X 7 Y z.t.E 5 * x ..&.&.&.&.&.&.&.&.",
"&.&.&.&.&.&.&.&...x * 5 Y g.j.Y 9   . . O D w.K.K.K.K.u.P % . . . 6 E j.f.Y 5 * x ..&.&.&.&.&.&.&.&.",
"&.&.&.&.&.&.&.&...x * 5 U g.j.Y 6   O + w I B.Q.W.W.W.B.I w ; O . 7 E j.f.Y 5 * x ..&.&.&.&.&.&.&.&.",
"&.&.&.&.&.&.&.&...x * 5 U f.z.*.7 X ; > ^ ( V.`.`.`.`.V.( ^ > ; . 7 Y j.f.Y 5 * x  .%.&.&.&.&.&.&.&.",
"&.&.&.&.&.&.&.%...x - 6 U f.j.Y 9 O : ^ / 9.H.}.{.{.}.H.0./ ^ : & 6 =.j.h.Y 5 - _ | %.%.&.&.&.&.&.&.",
"&.&.&.&.&.&.&.&.o.] j k R :.>.Y t t I ( 0.s.G.T.W.T.T.G.s.0.( I P Z Y >.:.T u z ] o.&.&.&.&.&.&.&.&.",
"&.&.&.&.&.&.&.&.$.O.| ) n f B Y ;.9.a.V.H.V.A.v.b.b.b.N.V.H.V.0.7.=.Y A g n ) ' O.#.&.&.&.&.&.&.&.&.",
"&.&.&.&.&.&.&.&.%.%.$...v - 3 Y t.K.R.).].I.v.3.3.6.3.v.Y.[.(.W.K.p.F 4 = v ..%.%.%.&.&.&.&.&.&.&.&.",
"&.&.&.&.&.&.&.&.$.X.| _ y * 3 Y j.!.L.D.V.m.v.j.c.v.c.v.n.C.J.L.Y.j.U 4 * y _ | X.$.&.&.&.&.&.&.&.&.",
"&.&.&.&.&.&.&.&.#.] x 1 , $ 4 Q C.!.C.e.W e.x.Y.Y.Y.Y.m.w.W 1.C.!.C.W 4 @ , 1 v ` +.&.&.&.&.&.&.&.&.",
"&.&.&.&.&.&.&.&...b , @   o 5 Q S./.i.S 3 W A.{.[.[.[.C.Q 4 S i./.F.:.6   . . = v ..&.&.&.&.&.&.&.&.",
"&.&.&.&.%.#.o. .{ m g d t h F q.l.C.Q r @ A q.S.S.S.S.q.A @ r Q C.l.2.F A p d g m ]  .o.#.&.&.&.&.&.",
"&.&.&.&.&.o.` v R ) q.i.i.i.e.q.,.! e 3 X 8 A Q Q Q Q S 6 X 3 s ! Q 1.p.i.i.i.y.~ M v ` o.&.&.&.&.&.",
"&.&.&.&.&. .v = d q.F./././.F.q.V 3 # @   # % 4 & 4 & % #   X # & A e.U./././.F.q.h = v  .&.&.&.&.&.",
"&.&.#.#...{ M p U k.!.`.!.E.C.2.N 4 4 5 7 9 r i s r s r 9 9 5 4 4 B 2.C.E.~.`.!.k.U p M ] ..o.$.&.&.",
"%.%.O.` v m ) q.k.A.T.U.x.e.:.U G t Z Y *.:.1.u.u.u.u.1.:.E Y G C Z U -.e.x.P.T.A.k.q.~ m v ` o.&.&.",
"&.%.| x , S w.F.!.E.I.n.:.B 9 B Y *.6.t.z.D.U.~.~.~.~.U.D.b.t.6.;.L N 7 d :.n.I.T.!.F.y.g = x | &.&.",
"&.&.' y @ d i./.]._.T.z.Y 6 # t *.r.c.Z.I.W.Q.).).).).Q.W.I.Z.c.r.*.t # 6 Y n.T.(.'./.i.d @ < ' &.&.",
"&.&.' y @ d i./.[.'._.A.:.6 2 Z 3.c.Z.Y.Q.T.I.J.J.D.J.I.T.Q.Y.Z.c.3.C 2 7 :.A.(.`.{./.i.d $ j ' &.&.",
"&.&.' y @ d i./.}.{.{.F.2.7 2 G w.Z.Y.Q.`.Y.M.t.r.t.r.M.Y.`.Q.Y.Z.w.G 3 r 2.U.'.{.{./.i.d @ j ' &.&.",
"&.&.| v , f y.F.!.Q.~.A.Q 7 & Z 4.M.L.Q.).L.v.6.6.6.6.v.L.).Q.L.n.5.C % 6 Q A.~.~.~.F.y.f = v  .&.&.",
"&.&.o.` v m ~ q.e.y.e.Q S 3 # 9 Z -.w.n.K.Z.v.h.c.t.h.v.Z.K.n.w.-.Z 9 # 3 V :.u.y.e.q.~ m v ` o.&.&.",
"&.&.$.o...{ n p e e r 7 * # X # 4 r H 3.h.g.v.M.M.M.M.b.g.t.4.H r 5 % X X * 9 r i i h n { ..+.$.&.&.",
"&.&.&.&.&. .v = $ $ $ $ @ X o @ # 4 t *.6.t.g.n.b.M.b.g.r.6.*.t 4 # X o X @ $ $ $ $ = v  .&.&.&.&.&.",
"&.&.&.&.&.o.` v j x x < , @ # 5 e H =.6.t.6.4.-.-.;.;.>.w.t.6.=.H N 6 X $ = < z z z v ` o.&.&.&.&.&.",
"&.&.&.&.&.#.o. .| | | _ < * # B =.w.g.j.v.4.H 9 r r 7 H <.v.v.d.w.-.B % * < } | | |  .o.#.&.&.&.&.&.",
"&.&.&.&.&.&.%.&.&.&.&.O.b , 4 U e.Z.Z.M.b.-.s @ @ @ $ e >.j.Z.Z.N.w.F 5 , b o.&.%.&.&.&.&.&.&.&.&.&.",
"&.&.&.&.&.&.&.&.&.&.&.#.' v k l W >.>.>.>.R l j j j y l R >.>.>.:.Q T k v ' @.&.&.&.&.&.&.&.&.&.&.&.",
"&.&.&.&.&.&.&.&.&.&.&.$.o. .] m f e e e s l ) ' ' ' ' _ l s e r e f M ` | o.$.&.&.&.&.&.&.&.&.&.&.&.",
"&.&.&.&.&.&.&.&.&.&.&.&.&.&.o._ ,       . j ' &.&.&.&.' j @       , _ o.%.&.&.&.&.&.&.&.&.&.&.&.&.&.",
"&.&.&.&.&.&.&.&.&.&.&.&.&.&.X._ ,       @ j ' &.&.&.&.' j @       , b o.&.&.&.&.&.&.&.&.&.&.&.&.&.&."
};
