/* XPM */
static char *df67b1b54986427bf702947b8171b1dbZhSJJlRIlM7IG9rt[] = {
/* columns rows colors chars-per-pixel */
"50 50 190 2 ",
"   c #15182E",
".  c #19192F",
"X  c #161A30",
"o  c #1A1D33",
"O  c #271B31",
"+  c #3D1E34",
"@  c #1F2332",
"#  c #1F2339",
"$  c #222534",
"%  c #22263D",
"&  c #24283D",
"*  c #2D3235",
"=  c #3A3F3B",
"-  c #303535",
";  c #4F293F",
":  c #592238",
">  c #3D4239",
",  c #43493A",
"<  c #555B3F",
"1  c #242941",
"2  c #292D44",
"3  c #2D3146",
"4  c #2E3249",
"5  c #32364C",
"6  c #35394E",
"7  c #333845",
"8  c #3A3E54",
"9  c #393D56",
"0  c #7E3147",
"q  c #3F435A",
"w  c #3E4255",
"e  c #3F444A",
"r  c #3E4464",
"t  c #585F40",
"y  c #52584C",
"u  c #414457",
"i  c #42465C",
"p  c #44485B",
"a  c #494C5E",
"s  c #484757",
"d  c #4E5355",
"f  c #51555B",
"g  c #575C5C",
"h  c #474C4F",
"j  c #596040",
"k  c #5B624A",
"l  c #5F6556",
"z  c #676E44",
"x  c #646A4D",
"c  c #6E7546",
"v  c #6D7549",
"b  c #737B47",
"n  c #777F48",
"m  c #676E56",
"M  c #6C7353",
"N  c #6B7159",
"B  c #717758",
"V  c #454960",
"C  c #4C4E64",
"Z  c #444A68",
"A  c #4E5165",
"S  c #4D516A",
"D  c #515466",
"F  c #50556E",
"G  c #565A6A",
"H  c #555973",
"J  c #5A5E73",
"K  c #5B5F78",
"L  c #725B70",
"P  c #745166",
"I  c #5D6179",
"U  c #5E6274",
"Y  c #636865",
"T  c #757A6E",
"R  c #61657D",
"E  c #686C7B",
"W  c #646977",
"Q  c #787C75",
"!  c #83293F",
"~  c #AD394E",
"^  c #9C5C6F",
"/  c #986679",
"(  c #BC6A7B",
")  c #798249",
"_  c #798151",
"`  c #838C4B",
"'  c #87914C",
"]  c #8D974E",
"[  c #929C4F",
"{  c #858E53",
"}  c #8C9553",
"|  c #959E50",
" . c #9BA451",
".. c #9CA651",
"X. c #A1AB53",
"o. c #AAB555",
"O. c #AFBA56",
"+. c #A6B054",
"@. c #B2BD57",
"#. c #B4BF58",
"$. c #B9C559",
"%. c #BECA5A",
"&. c #B5C058",
"*. c #C1CC5B",
"=. c #C8D45D",
"-. c #C6D25C",
";. c #595F86",
":. c #5C6287",
">. c #666A84",
",. c #6A6E83",
"<. c #676C8C",
"1. c #6D7084",
"2. c #6E728B",
"3. c #727585",
"4. c #72758D",
"5. c #76798A",
"6. c #797C89",
"7. c #6F769E",
"8. c #6E7393",
"9. c #767A93",
"0. c #70779F",
"q. c #757A9A",
"w. c #767A94",
"e. c #737AA0",
"r. c #BE7282",
"t. c #7E8187",
"y. c #7E8293",
"u. c #7E829C",
"i. c #7E83A7",
"p. c #828493",
"a. c #858891",
"s. c #8A8C9A",
"d. c #83869A",
"f. c #8C8793",
"g. c #BC8698",
"h. c #8186A5",
"j. c #898DA7",
"k. c #858BAC",
"l. c #888DAA",
"z. c #8F92A6",
"x. c #8F93AC",
"c. c #9195AB",
"v. c #9599AF",
"b. c #999BA8",
"n. c #8A8FB0",
"m. c #8E93B1",
"M. c #9195B3",
"N. c #9599B4",
"B. c #999DB4",
"V. c #9A9EB9",
"C. c #969BB9",
"Z. c #968CA1",
"A. c #B498AA",
"S. c #A69BB3",
"D. c #9EA1B3",
"F. c #9EA2BC",
"G. c #A1A3B2",
"H. c #A9ABB7",
"J. c #ADAFBB",
"K. c #A4A6B9",
"L. c #AEB0BC",
"P. c #B2B4BF",
"I. c #BBA3B5",
"U. c #C99DAB",
"Y. c #CEAAB7",
"T. c #A3A7C1",
"R. c #A5A9C3",
"E. c #ABAEC4",
"W. c #AEB1C4",
"Q. c #B2B3C4",
"!. c #B3B5C9",
"~. c #B6B9CE",
"^. c #BDBFCE",
"/. c #B9BBC6",
"(. c #BBBED0",
"). c #BFC0CC",
"_. c #BFC1D2",
"`. c #C3C4CE",
"'. c #C3C6D7",
"]. c #C7C9D6",
"[. c #CBCCD5",
"{. c #C6C8D8",
"}. c #CACCDA",
"|. c #CBC7D5",
" X c #CFD1DE",
".X c #D4D0DB",
"XX c #D3D4E0",
"oX c #D7D9E3",
"OX c #DBDCE5",
"+X c #DFE0E8",
/* pixels */
"=.=.=.=.=.=.=.=.=.=.=.=.=.=.=.=.=.=.=.=.=.=.=.=.=.=.=.=.=.=.=.=.=.=.=.=.=.=.=.=.=.=.=.=.=.=.=.=.=.=.",
"=.=.=.=.=.=.=.=.=.=.=.=.=.=.=.=.=.=.=.=.=.-.=.=.=.=.=.=.=.=.=.=.=.=.=.=.=.=.=.=.=.=.=.=.=.=.=.=.=.=.",
"=.=.=.=.=.=.=.=.=.=.=.=.=.=.%.O...[ [ [ [ [ [ [ [ [ [ [ [ [ [ [ [ ..O.%.=.=.=.=.=.=.=.=.=.=.=.=.=.=.",
"=.=.=.=.=.=.=.=.=.=.=.=.=.=.$.| b j j j j j j j j j < j t j j j < b | $.=.=.=.=.=.=.=.=.=.=.=.=.=.=.",
"=.=.=.=.=.=.=.=.=.=.=.=.=.=.&.) , @ @ @ @ @ @ @ @ @ @ @ @ @ @ @ @ , ) #.=.-.=.=.=.=.=.=.=.=.=.=.=.=.",
"=.=.=.=.=.=.=.=.=.=.=.%.&...] M d w q p a a a a a a a a a a p w w d M ] X.#.%.=.=.=.=.=.=.=.=.=.=.=.",
"=.=.=.=.=.=.=.=.=.=.=.&.[ b x Y W ,.5.y.s.s.s.s.s.s.s.s.s.s.p.5.<.W m x b [ &.=.=.=.=.=.=.=.=.=.=.=.",
"=.=.=.=.=.=.=.=.=.=.=.o.) , 7 G y.V.E.).[.[.[.[.[.[.[.[.[.[.^.W.D.q.H 7 , ) O.=.=.=.=.=.=.=.=.=.=.=.",
"=.=.=.=.=.=.=.=.%.#.+.} m h V 2.v.~.{.XX+X+X+X+X+X+X+X+X+X+X X'.~.N.,.i h M } +.#.*.=.=.=.=.=.=.=.=.",
"=.=.=.=.=.=.=.=.#.[ n x m W 2.z.W.{. XoX+X+X+X+X+X+X+X+X+X+XoX X{.E.c.4.W Y x n [ #.=.=.=.=.=.=.=.=.",
"=.=.=.=.=.=.=.=.+.n , e U u.C.!.{.oXOXOX+X+X+X+X+X+X+X+X+X+X+XOXOX{.!.V.y.U e , n X.=.=.=.=.=.=.=.=.",
"=.=.=.=.=.=.=.=...z * 4 I l.E._. X+X+X+X+X+X+X+X+X+X+X+X+X+X+X+XOXXX(.E.j.J 3 * c X.=.=.=.=.=.=.=.=.",
"=.=.=.=.=.=.=.=.X.z * 4 I l.E._. X+X+X+X+X+X+X+X+X+X+X+X+X+X+X+X+XXX'.E.l.K 4 * z X.=.=.=.=.=.=.=.=.",
"=.=.=.=.=.=.=.=...c * 4 I j.E._.XX+X+X+X+X+X+X+X+X+X+X+X+X+X+X+XOXXX(.E.l.K 4 * z X.=.=.=.=.=.=.=.=.",
"=.=.=.=.=.=.=.=.X.z * 3 H h.T.~.}.oXOXOX+X+X+X+X+X+X+X+X+X+XOXOXoX}.~.T.h.H 4 * z X.=.=.=.=.=.=.=.=.",
"=.=.=.=.=.=.=.=...c * 2 S q.m.R.~.{. XOX+X+X+X+X+X+X+X+X+X+XoX X{.~.T.M.q.S 2 * z X.=.=.=.=.=.=.=.=.",
"=.=.=.=.=.=.=.=...z * 1 Z <.i.m.T.~.{. X+X+X+X+X+X+X+X+X+X+XXX{.!.T.M.i.<.Z 1 * z X.=.=.=.=.=.=.=.=.",
"=.=.=.=.=.=.=.=...z * 1 r :.e.i.x.V.!.].OXOXOX+X+X+X+XOXOXOX{.!.V.n.h.e.:.r 1 * z X.=.=.=.=.=.=.=.=.",
"=.=.=.=.=.=.=.=.+.z * 2 F 8.i.q.2.4.z.E.{. XoX+X+X+X+XoX X}.E.z.4.2.q.i.7.C 1 * z X.=.=.=.=.=.=.=.=.",
"=.=.=.=.=.=.=.=...z * 2 H i.j.<.S V ,.v.!.{.XX+X+X+X+XXX{.!.v.,.V D <.k.i.H 4 * z X.=.=.=.=.=.=.=.=.",
"=.=.=.=.=.=.=.=.+.z - 4 I j.x.>.5 % S w.F.!.}.OXOXOXOX].!.F.w.S 1 6 >.x.l.K 4 * z X.=.=.=.=.=.=.=.=.",
"=.=.=.=.=.=.=.=...z - 4 I j.x.I 5 # 9 H 4.c.W.{.}.{.}.W.x.4.H 9 o 6 K m.l.K 4 * z X.=.=.=.=.=.=.=.=.",
"=.=.=.=.=.=.=.=...z * 4 I l.z.>.5 o 1 5 V ,.c.~.~.~.~.c.2.V 6 1 . 5 R x.j.K 4 * z X.=.=.=.=.=.=.=.=.",
"=.=.=.=.=.=.=.=.X.z * 4 I l.x.R 5 X X X % C q.R.R.R.R.q.C O     X 6 R c.j.K 4 * z X.=.=.=.=.=.=.=.=.",
"=.=.=.=.=.=.=.=.X.z * 4 I z.x.R 5 . O + ; L Z.~.~.~.~.Z.L ; + O . 6 >.x.j.K 4 * z X.=.=.=.=.=.=.=.=.",
"=.=.=.=.=.=.=.=.X.z * 4 I l.m.I 6 O + : 0 / A.}. X}.}.A./ 0 : + o 5 R n.j.K 4 * z X.=.=.=.=.=.=.=.=.",
"=.=.=.=.=.=.=.=...z * 4 I l.x.>.5 O ; ! ~ r.Y.+XOX+XOXY.r.~ ! : O 5 >.x.j.K 4 * z X.=.=.=.=.=.=.=.=.",
"=.=.=.=.=.=.=.=.O.' j y Y 1.2.I S V P ^ ( g.I.(._.(._.I.g.( ^ P a C I 2.3.Y y t ` O.=.=.=.=.=.=.=.=.",
"=.=.=.=.=.=.=.=.$.X.] _ m D S I >.4.r.S.U.I.S.N.C.C.D.G.I.U.A.r.4.>.K S G m _ ] X.$.=.=.=.=.=.=.=.=.",
"=.=.=.=.=.=.=.=.=.*.%.X.v > 3 H d.F.~._. XW.x.7.7.7.7.M.W..X_.E.K.u.H 4 > v X.*.*.-.=.=.=.=.=.=.=.=.",
"=.=.=.=.=.=.=.=.%.O...) j * 2 I x.!.W.J.H.D.M.n.i.n.i.N.D.H.W.W.!.x.I 3 * < ` ..O.%.=.=.=.=.=.=.=.=.",
"=.=.=.=.=.=.=.=.O.[ b < > @ 3 E D._.D.y.,.u.D.W.W.W.W.D.u.1.y.F.).D.W 3 @ > < c ] &.=.=.=.=.=.=.=.=.",
"=.=.=.=.=.=.=.=.X.b > $ @ . 7 1.L.].s.G 7 E G. X.X.XoXG.E 5 G z.].J.E 7 . @ $ > b +.=.=.=.=.=.=.=.=.",
"=.=.=.=.=.%.&.X.} M d u u u A 5.b.G.3.w # D p.P.Q.P.P.p.S @ w 1.G.b.5.D u u u d M ] +.#.%.=.=.=.=.=.",
"=.=.=.=.=.O.[ c M T t.p.p.p.y.t.5.E V 3 o 6 G 3.1.3.3.G 6 o 3 C E 5.t.y.p.p.p.t.T M c ] O.=.=.=.=.=.",
"=.=.=.=.=...c > d t.L.`.`.`.L.y.A 3 & @ X # 2 3 7 5 7 & #   @ & 3 D y.L.`.`.`.J.t.d > c ..=.=.=.=.=.",
"=.=.%.&.+.} x h U s.). X].).H.6.A 5 5 6 6 5 2 1 1 1 1 2 4 8 6 5 3 A 6.H.).]. X).s.G h x } o.&.%.=.=.",
"=.=.O.} b B T 6.s.G.~.!.D.a.5.1.I I ,.3.6.:.F r r r r S R 5.3.E I R 1.5.a.D.!.~.G.s.6.T B b ] O.=.=.",
"=.=...v > l y.J./.!.!.N.5.A p I w.x.D.W.Q.v.q.:.:.:.;.q.v.Q.L.D.x.w.I p A 4.B.!.~./.L.a.g > c ..=.=.",
"=.=. .t @ V s.[. X'.~.x.I 4 1 A 5.N.W.).].W.m.0.7.7.7.m.W.}._.E.N.5.S & 4 R c.!.{. X[.s.a @ j [ =.=.",
"=.=.[ j @ a s.[.oX X{.G.,.5 % 6 F <.u.N.R.F.m.k.k.k.k.m.F.K.N.u.<.F 9 # 5 ,.G.{. XoX[.s.a @ j [ =.=.",
"=.=.[ < @ a s.[.OXOXXXP.3.6 o % 2 w H 8.i.n.m.C.C.C.C.m.n.k.8.H 9 3 # X 6 3.Q. XoXOX[.s.a $ j [ =.=.",
"=.=.| z - f a./.[.[.[.H.1.6 X o # 2 r :.0.i.n.N.N.N.N.l.i.7.:.r 2 # @ X 6 E H.[.[.[./.a.f * z | =.=.",
"=.=.o.' z N Q a.s.s.s.3.A 2 # 4 p H >.7.i.u.2.>.>.>.,.8.q.i.q.,.H V 5 @ 3 D 5.s.s.s.a.Q M z ' o.=.=.",
"=.=.$.o...{ N f a a a w 3 @ & V >.u.h.x.x.8.H 9 9 9 9 H 8.x.m.h.i.,.p & @ 4 w a a a f m { ..o.$.=.=.",
"=.=.=.=.=...z - @ @ @ @ @ @ 3 J u.F.F.F.N.,.p @ @ @ @ p 1.v.F.V.B.u.J 3 @ @ @ @ @ $ * z ..=.=.=.=.=.",
"=.=.=.=.=.o.` z j j j j t j k m E 2.2.2.1.Y l j j j j l W 1.1.2.2.E Y k j j j j j j z ' O.=.=.=.=.=.",
"=.=.=.=.=.$.o. .[ [ [ [ [ [ { N f q q q p l _ [ [ [ [ _ l p q q w f M ' [ [ [ [ [ [  .+.$.=.=.=.=.=.",
"=.=.=.=.=.=.=.=.=.=.=.=.=.=.O.n >       @ j [ -.=.=.=.[ j @       > n O.-.=.=.=.=.=.=.=.=.=.=.=.=.=.",
"=.=.=.=.=.=.=.=.=.=.=.=.=.=.O.n >       @ < [ =.=.=.=.[ < @       > b O.=.=.=.=.=.=.=.=.=.=.=.=.=.=."
};
