/* XPM */
static char *_36070cb462041f7e1207444c7af018bVjNYq9Q3h08oXYGO[] = {
/* columns rows colors chars-per-pixel */
"50 50 183 2 ",
"   c #14182E",
".  c #1B1A2F",
"X  c #161A30",
"o  c #191D33",
"O  c #251B31",
"+  c #391E34",
"@  c #1E2234",
"#  c #1E2239",
"$  c #262B33",
"%  c #21253C",
"&  c #262B33",
"*  c #2D3235",
"=  c #552238",
"-  c #49283E",
";  c #7F283E",
":  c #3D4339",
">  c #454B3B",
",  c #4A503C",
"<  c #565D3F",
"1  c #252A42",
"2  c #292D44",
"3  c #2E3146",
"4  c #2E3249",
"5  c #32364D",
"6  c #35394E",
"7  c #383C4F",
"8  c #393D52",
"9  c #783046",
"0  c #3C4146",
"q  c #3D4156",
"w  c #3E425B",
"e  c #3E4361",
"r  c #44494B",
"t  c #4D524E",
"y  c #585F40",
"u  c #424357",
"i  c #41455D",
"p  c #494C5E",
"a  c #474B56",
"s  c #4E515E",
"d  c #565B59",
"f  c #5C6341",
"g  c #606742",
"h  c #676F44",
"j  c #666D4D",
"k  c #6B734E",
"l  c #737B47",
"z  c #777F48",
"x  c #666C5C",
"c  c #6D7355",
"v  c #737A54",
"b  c #4A4E63",
"n  c #454A68",
"m  c #4E526B",
"M  c #4F5264",
"N  c #515466",
"B  c #52566C",
"V  c #55586B",
"C  c #595D69",
"Z  c #565A72",
"A  c #5A5E75",
"S  c #5B5F78",
"D  c #535772",
"F  c #6F4B60",
"G  c #6E596F",
"H  c #5F646F",
"J  c #5D6179",
"K  c #5D6076",
"L  c #74796B",
"P  c #61657E",
"I  c #666979",
"U  c #767A7B",
"Y  c #60656B",
"T  c #A7384D",
"R  c #995568",
"E  c #936578",
"W  c #BA6376",
"Q  c #7A8349",
"!  c #828B4B",
"~  c #87904C",
"^  c #939C4F",
"/  c #8F9853",
"(  c #949D51",
")  c #818955",
"_  c #97A150",
"`  c #99A351",
"'  c #9FA952",
"]  c #A1AB53",
"[  c #A7B154",
"{  c #ABB555",
"}  c #AFBA57",
"|  c #B2BD57",
" . c #B4BF58",
".. c #B6C258",
"X. c #B9C459",
"o. c #BFCB5B",
"O. c #C1CC5B",
"+. c #C8D45D",
"@. c #C4D05C",
"#. c #565C82",
"$. c #5C6288",
"%. c #6A6D82",
"&. c #636885",
"*. c #716F87",
"=. c #6E7183",
"-. c #6D718A",
";. c #747686",
":. c #71758A",
">. c #7A7C8C",
",. c #767A84",
"<. c #6E759D",
"1. c #6B7193",
"2. c #727694",
"3. c #757993",
"4. c #797D94",
"5. c #7A7E9B",
"6. c #767B9A",
"7. c #737AA1",
"8. c #917D91",
"9. c #B97081",
"0. c #7D8084",
"q. c #7C809A",
"w. c #7F8190",
"e. c #7D83A6",
"r. c #828493",
"t. c #8A8C9A",
"y. c #888B98",
"u. c #8D909F",
"i. c #818487",
"p. c #B68898",
"a. c #8488A2",
"s. c #898DA7",
"d. c #8187AA",
"f. c #8389AA",
"g. c #868BA8",
"h. c #8F93AC",
"j. c #9294A1",
"k. c #9396AC",
"l. c #9699AE",
"z. c #8C91B1",
"x. c #9296B3",
"c. c #9498B4",
"v. c #9B9EB4",
"b. c #9A9EB9",
"n. c #938AA0",
"m. c #B09AAE",
"M. c #9EA0AC",
"N. c #9EA1B2",
"B. c #9CA1BC",
"V. c #A1A4B5",
"C. c #A9ABB5",
"Z. c #ADAFBB",
"A. c #A5A8B9",
"S. c #AFB1BE",
"D. c #B0B2BD",
"F. c #BEA4B5",
"G. c #C796A5",
"H. c #CBA8B5",
"J. c #A3A7C2",
"K. c #A5A9C3",
"L. c #AAAEC5",
"P. c #B3AFC3",
"I. c #AEB1C7",
"U. c #B2B4C4",
"Y. c #BBBCC7",
"T. c #B1B5CA",
"R. c #B6B9CE",
"E. c #B9BBCD",
"W. c #B9BCD0",
"Q. c #BFC1CD",
"!. c #BFC1D3",
"~. c #C3C4CE",
"^. c #C8C0CE",
"/. c #C3C5D5",
"(. c #CBCDDB",
"). c #C8CAD5",
"_. c #CED0DD",
"`. c #D2D4DE",
"'. c #D4C9D5",
"]. c #D3D4E0",
"[. c #D7D9E3",
"{. c #DCDDE6",
"}. c #DFE0E8",
/* pixels */
"+.+.+.+.+.+.+.+.+.+.+.+.+.+.+.+.+.+.+.+.+.+.+.+.+.+.+.+.+.+.+.+.+.+.+.+.+.+.+.+.+.+.+.+.+.+.+.+.+.+.",
"+.+.+.+.+.+.+.+.+.+.+.+.+.+.+.+.+.+.+.+.+.+.+.+.+.+.+.+.+.+.+.+.+.+.+.+.+.+.+.+.+.+.+.+.+.+.+.+.+.+.",
"+.+.+.+.+.+.+.+.+.+.+.+.+.+.+.+.+.+.+.+.+.+.+.+.+.+.+.+.+.+.+.+.+.+.+.+.+.+.+.+.+.+.+.+.+.+.+.+.+.+.",
"+.+.+.+.+.+.+.+.+.+.+.+.+.+.+.+.+.+.+.+.+.+.+.+.+.+.+.+.+.+.+.+.+.+.+.+.+.+.+.+.+.+.+.+.+.+.+.+.+.+.",
"+.+.+.+.+.+.+.+.+.+.+.+.+.+.+.+.+.+.+.+.+.+.+.+.+.+.+.+.+.+.+.+.+.+.+.+.+.+.+.+.+.+.+.+.+.+.+.+.+.+.",
"+.+.+.+.+.+.+.+.+.+.+.+.+.+.O.| [ ` ` ` ` ` ` ` ` ` ` ' ` ` ` ` ` ]  .O.+.+.+.+.+.+.+.+.+.+.+.+.+.+.",
"+.+.+.+.+.+.+.+.+.+.+.+.+.+.X.` Q f g g g g g g f g g g g g g g g Q _ X.+.+.+.+.+.+.+.+.+.+.+.+.+.+.",
"+.+.+.+.+.+.+.+.+.+.+.+.+.+.| Q > $ $ $ $ $ $ $ $ $ $ & $ $ $ $ & , Q | +.+.+.+.+.+.+.+.+.+.+.+.+.+.",
"+.+.+.+.+.+.+.+.+.+.+.O.| [ ( c t 7 8 q w a a q u u u u u u q q 7 t c ( [  .O.+.+.+.+.+.+.+.+.+.+.+.",
"+.+.+.+.+.+.+.+.+.+.+..._ Q j x H P -.>.w.r.w.w.r.r.r.r.r.r.>.=.P H x j Q _ ..+.+.+.+.+.+.+.+.+.+.+.",
"+.+.+.+.+.+.+.+.+.+.+.{ Q , 7 H q.l.A.R.~.~.Q.~.~.~.~.~.~.~.U.A.c.4.H 7 , Q { +.+.+.+.+.+.+.+.+.+.+.",
"+.+.+.+.+.+.+.+.O...{ ( k r q %.l.T./.].}.}.}.}.}.}.}.}.}.}.]./.R.k.I u r k ( { X.O.+.+.+.+.+.+.+.+.",
"+.+.+.+.+.+.+.+..._ Q k x H %.s.L./._.[.}.}.}.}.}.}.}.}.}.}.[._./.L.s.%.K x k Q _  .+.+.+.+.+.+.+.+.",
"+.+.+.+.+.+.+.+.[ Q , r H 4.c.L./.`.[.}.}.}.}.}.}.}.}.}.}.}.}.{.[./.L.l.4.Y r , Q [ +.+.+.+.+.+.+.+.",
"+.+.+.+.+.+.+.+.' h * 4 J s.I.!.].}.}.}.}.}.}.}.}.}.}.}.}.}.}.}.}.]./.L.s.S 4 * h ] +.+.+.+.+.+.+.+.",
"+.+.+.+.+.+.+.+.' h * 4 J s.L.!.].}.}.}.}.}.}.}.}.}.}.}.}.}.}.}.}.].W.I.s.S 4 * h ] +.+.+.+.+.+.+.+.",
"+.+.+.+.+.+.+.+.' h * 4 J g.L.!.].}.}.}.}.}.}.}.}.}.}.}.}.}.}.}.}.].W.I.f.S 4 * j ] +.+.+.+.+.+.+.+.",
"+.+.+.+.+.+.+.+.' j * 4 J f.K.W.(.{.{.{.}.}.}.}.}.}.}.}.}.}.{.{.[.(.W.L.f.S 4 * h ] +.+.+.+.+.+.+.+.",
"+.+.+.+.+.+.+.+.' h * 2 m 6.b.K.W.(.`.[.}.}.}.}.}.}.}.}.}.}.{._.(.W.K.c.6.D 2 * h ] +.+.+.+.+.+.+.+.",
"+.+.+.+.+.+.+.+.] h * 2 e 1.e.c.J.R.).].}.}.}.}.}.}.}.}.}.}.].).W.K.c.f.&.n 1 * h ] +.+.+.+.+.+.+.+.",
"+.+.+.+.+.+.+.+.] h * 1 e $.7.e.z.J.Y.(.{.{.}.}.}.}.}.}.{.{.(.T.V.x.d.7.#.n 1 * h ] +.+.+.+.+.+.+.+.",
"+.+.+.+.+.+.+.+.] h * 2 n 1.e.q.2.3.k.I.(.`.[.}.}.}.}.{.].(.I.h.3.2.6.7.1.n 2 * h ] +.+.+.+.+.+.+.+.",
"+.+.+.+.+.+.+.+.' h * 2 D q.g.-.m m -.v.R.).].}.}.}.}.`.).R.v.-.b D -.f.7.A 2 * h ] +.+.+.+.+.+.+.+.",
"+.+.+.+.+.+.+.+.] j * 4 K h.z.J 6 % m q.J.R.(.}.}.{.}.(.R.K.q.m % 6 P k.s.S 4 * h ] +.+.+.+.+.+.+.+.",
"+.+.+.+.+.+.+.+.' h * 4 J s.h.&.6 o 8 A 4.k.U.(.(.(.(.U.k.4.S 8 o 6 &.k.g.S 4 * h ] +.+.+.+.+.+.+.+.",
"+.+.+.+.+.+.+.+.' h * 4 J s.h.P 6 o 2 8 b :.c.R.R.R.E.l.:.b 8 2 o 6 &.s.g.S 4 * h ] +.+.+.+.+.+.+.+.",
"+.+.+.+.+.+.+.+.[ h * 4 J s.h.P 6 X     % m 6.K.J.J.J.4.m # X X   5 P k.s.S 5 * h ] +.+.+.+.+.+.+.+.",
"+.+.+.+.+.+.+.+.' h * 4 J g.z.P 6 X O + - G n.R.R.R.R.s.G - + O . 5 P z.s.S 4 * h ] +.+.+.+.+.+.+.+.",
"+.+.+.+.+.+.+.+.] h * 4 K s.h.P 6 . + = T E n.(.(.(./.m.E 9 = + . 6 &.k.s.S 3 * h ] +.+.+.+.+.+.+.+.",
"+.+.+.+.+.+.+.+.] h * 4 K s.h.$.5 O + T T 9.H.[.[.{.[.H.9.T 9 = O 6 P s.s.S 5 * h ] +.+.+.+.+.+.+.+.",
"+.+.+.+.+.+.+.+.{ Q y t G :.2.S b p F R W p.F.!.!./.!.H.p.W R F u b J 3.;.Y t < ! { +.+.+.+.+.+.+.+.",
"+.+.+.+.+.+.+.+...' ~ z x C D G &.*.8.8.G.m.V.b.b.b.b.m.m.G.p.8.*.P K B C x v ~ ] X.+.+.+.+.+.+.+.+.",
"+.+.+.+.+.+.+.+.o.o...` k 0 4 A q.v.P.^.'.P.x.7.7.7.7.c.P.'.^.P.b.4.Z 6 0 k ' X.o.@.+.+.+.+.+.+.+.+.",
"+.+.+.+.+.+.+.+.o...[ ~ f * 2 K h.T.U.U.S.V.x.f.d.d.d.k.V.S.U.U.T.h.S 2 * y ~ [ ..o.+.+.+.+.+.+.+.+.",
"+.+.+.+.+.+.+.+...^ l f : $ 3 P v.E.V.y.;.y.v.L.L.L.L.v.t.>.y.V.E.N.I 2 $ : f z ^ | +.+.+.+.+.+.+.+.",
"+.+.+.+.+.+.+.+.[ l : * @ o 3 =.Z.).j.C 8 %.M.(.(._.(.v.I 7 A j.).D.I 5 . @ $ > l [ +.+.+.+.+.+.+.+.",
"+.+.+.+.+.o...{ ( c r 7 7 7 s ;.M.C.:.u # N y.Y.Y.Y.Y.y.N % q ;.C.M.;.p q 7 7 r k / { ..o.+.+.+.+.+.",
"+.+.+.+.+..._ Q v L U >.>.>.>.>.:.U N 3 o 8 A >.>.>.>.A q . 3 M ;.>.>.>.>.>.w.U L c z ^ | +.+.+.+.+.",
"+.+.+.+.+.] l : s 0.C.Y.Y.Y.C.w.V 6 2 # . % 4 6 7 6 7 3 % X # 2 5 V 8.C.Y.Y.Y.C.0.d > l ] +.+.+.+.+.",
"+.+.o.X.} / j 0 V t.~.`._.~.Z.>.p 2 3 3 4 2 1 1 % % % % * 4 4 2 2 b >.C.~.(.`.Q.y.V 0 j / | X.o.+.+.",
"+.+.} ^ Q Q L U r.N.R.Y.V.u.>.=.P Z I I ;.S m 8 8 e w m K =.I P C P %.>.t.V.R.R.M.r.U L v Q _ } +.+.",
"+.+.' l r d 0.C.U.U.I.B.4.V b J 3.s.k.C.Z.h.2.#.#.#.#.2.h.S.Z.l.s.3.P b V 4.v.U.U.U.C.i.d > l ' +.+.",
"+.+.^ y @ p t.'.`./.T.h.J 4 % B 4.b.U./.(.I.z.<.<.<.<.z.I.(.!.I.v.4.m 1 5 P k.T./.].(.t.p @ y ( +.+.",
"+.+.^ y @ p t.).{.(./.N.%.5 # q D -.a.b.L.B.z.d.e.e.f.z.B.L.b.a.:.D 8 % 6 I v./.(.[.).t.p @ f / +.+.",
"+.+.^ y $ p y.).{.[.].S.;.5 o % 5 i S 2.z.z.z.c.b.x.x.x.z.z.<.S i 5 1 o 6 ;.D.`.[.{.(.s.p @ f ^ +.+.",
"+.+._ f & b r.~.`.`.`.S.;.7   @ o 1 e #.<.e.z.b.B.B.B.z.e.<.S e 1 o X   6 ;.D.`.`.].~.f.s & g ^ +.+.",
"+.+.[ ! j x Q y.j.j.j.>.B 3 @ 4 8 D &.<.e.6.2.-.-.-.1.1.6.e.2.P B u 4 o 2 N >.j.j.j.u.Q c g ! [ +.+.",
"+.+.X.[ / ) L C N N N a 5 # % w &.6.y.z.z.2.A w w w w S 2.z.h.e.6.P n % % 5 p N N N C c Q ^ [ X.+.+.",
"+.+.+.+.+.` f $             1 Z t.J.J.J.b.-.w         w -.B.J.J.J.a.Z 2             & g _ +.+.+.+.+.",
"+.+.+.+.+.` g &             3 Z a.J.J.J.b.-.w         w =.B.J.J.J.a.Z 1             & g _ +.+.+.+.+."
};
