/* XPM */
static char *_d105ddcc20546dd91442abeacbcae48zCZNKWtPEvrPc1aL[] = {
/* columns rows colors chars-per-pixel */
"64 64 256 2 ",
"   c #5C7617",
".  c #5F7217",
"X  c #65740D",
"o  c #646F15",
"O  c #677418",
"+  c #757718",
"@  c #72770A",
"#  c #5B7325",
"$  c #686D27",
"%  c #64722B",
"&  c #6B742B",
"*  c #687626",
"=  c #757629",
"-  c #696C37",
";  c #716C39",
":  c #6A7436",
">  c #74753A",
",  c #726E2F",
"<  c #6B6B45",
"1  c #756B47",
"2  c #697245",
"3  c #787948",
"4  c #756A53",
"5  c #797955",
"6  c #666556",
"7  c #7D7D66",
"8  c #6C5F4F",
"9  c #877F2E",
"0  c #877F10",
"q  c #847E49",
"w  c #887C59",
"e  c #837D65",
"r  c #788819",
"t  c #768A15",
"y  c #7B8524",
"u  c #7B852A",
"i  c #778928",
"p  c #7B8435",
"a  c #7C8B33",
"s  c #7C843C",
"d  c #7D893B",
"f  c #758739",
"g  c #74902C",
"h  c #7B8444",
"j  c #7C834C",
"k  c #788745",
"l  c #7C8355",
"z  c #6D8241",
"x  c #7C8163",
"c  c #878517",
"v  c #89991A",
"b  c #979D1A",
"n  c #88860F",
"m  c #8FA21B",
"M  c #858827",
"N  c #899827",
"B  c #939A28",
"V  c #82863A",
"C  c #889A39",
"Z  c #959839",
"A  c #8BA236",
"S  c #95A336",
"D  c #9BB53A",
"F  c #91A42A",
"G  c #A6AC39",
"H  c #A6B43B",
"J  c #A6AF27",
"K  c #AAAF1B",
"L  c #BEC93F",
"P  c #84854A",
"I  c #8C964C",
"U  c #899A46",
"Y  c #949947",
"T  c #848557",
"R  c #8C9B53",
"E  c #8B9658",
"W  c #939A54",
"Q  c #969658",
"!  c #958E55",
"~  c #A39D44",
"^  c #9BAA46",
"/  c #9BB448",
"(  c #9AA959",
")  c #9BB356",
"_  c #8DA244",
"`  c #A7AD48",
"'  c #A7B348",
"]  c #A6AB59",
"[  c #A5B357",
"{  c #B4B44F",
"}  c #848464",
"|  c #968B69",
" . c #8E9966",
".. c #959767",
"X. c #9B8D75",
"o. c #939076",
"O. c #A49577",
"+. c #9CAD67",
"@. c #A4AC6B",
"#. c #AAAC6C",
"$. c #A7AA64",
"%. c #A6B268",
"&. c #B8BA69",
"*. c #ABAD7B",
"=. c #A6A875",
"-. c #AAB574",
";. c #B4BA78",
":. c #B5A86C",
">. c #CABC6B",
",. c #E2BF61",
"<. c #B8C64A",
"1. c #B8C656",
"2. c #ADC74F",
"3. c #AEC566",
"4. c #B8C768",
"5. c #B4C473",
"6. c #B6C37B",
"7. c #BAC578",
"8. c #B3C96E",
"9. c #C8CB53",
"0. c #D8C858",
"q. c #CFD051",
"w. c #E4D25E",
"e. c #CBC968",
"r. c #D7CA67",
"t. c #D9D868",
"y. c #CAC878",
"u. c #D8C878",
"i. c #C9D57B",
"p. c #D9D979",
"a. c #CBD165",
"s. c #E4C966",
"d. c #E8D969",
"f. c #E9DB79",
"g. c #F6DB77",
"h. c #F0D56B",
"j. c #DEE866",
"k. c #DAE377",
"l. c #CDE37C",
"z. c #E6E66A",
"x. c #F4E36D",
"c. c #E9E576",
"v. c #F5E678",
"b. c #E5EF5B",
"n. c #A9A984",
"m. c #B7A689",
"M. c #B8B987",
"N. c #BBB897",
"B. c #B1AC8D",
"V. c #BAB8A6",
"C. c #BEB2B8",
"Z. c #9D9583",
"A. c #C3BD8B",
"S. c #C7BB89",
"D. c #C4BC9C",
"F. c #C7B898",
"G. c #CBAEAA",
"H. c #C4BBA2",
"J. c #C8B7A8",
"K. c #D2B6AA",
"L. c #CBADB5",
"P. c #C9B5B7",
"I. c #D5B8B8",
"U. c #D5ADB4",
"Y. c #B9C286",
"T. c #BFC095",
"R. c #BFC1A9",
"E. c #C5C688",
"W. c #C9D788",
"Q. c #D3DC8C",
"!. c #D9DB85",
"~. c #C7C695",
"^. c #CBDA97",
"/. c #D3DB95",
"(. c #D4DB9A",
"). c #D9D898",
"_. c #D9CB8F",
"`. c #E6DA87",
"'. c #F3DA87",
"]. c #E5DA97",
"[. c #F4DD92",
"{. c #E1CD88",
"}. c #CBE388",
"|. c #D9E188",
" X c #CEE296",
".X c #D8E397",
"XX c #ECE587",
"oX c #F8E786",
"OX c #FFF587",
"+X c #E9E396",
"@X c #F7E696",
"#X c #FFF195",
"$X c #CBC5A7",
"%X c #D7CAAB",
"&X c #CDD7A6",
"*X c #D3D4A4",
"=X c #D3DDA4",
"-X c #D5D6AB",
";X c #D8D9A8",
":X c #D8C6B8",
">X c #CDD6B6",
",X c #D4DCB3",
"<X c #D8D6B7",
"1X c #CDC7B7",
"2X c #E6DAA7",
"3X c #E2D2B5",
"4X c #D8E1A5",
"5X c #D9E2B5",
"6X c #E8E6A5",
"7X c #FEFCAC",
"8X c #F9FEA7",
"9X c #FDFDB4",
"0X c #F4FEBC",
"qX c #FEFEBC",
"wX c #F8FAB6",
"eX c #EBEAB7",
"rX c #CEABC2",
"tX c #D6ACC6",
"yX c #D9B9C8",
"uX c #CFB8C9",
"iX c #E6BCD6",
"pX c #E7B9CF",
"aX c #D8C7C5",
"sX c #DCD4CC",
"dX c #DAD5C2",
"fX c #D6C9CE",
"gX c #E4C7C8",
"hX c #E5D3C8",
"jX c #E7CBD6",
"kX c #E7D2D6",
"lX c #F2D2DA",
"zX c #F5CBD2",
"xX c #F5FEC3",
"cX c #FDFEC4",
"vX c #F4FECC",
"bX c #FDFECB",
"nX c #FBF7CC",
"mX c #F5FFD3",
"MX c #FDFED4",
"NX c #FDFEDC",
"BX c #F7FBDA",
"VX c #EFFFCC",
"CX c #F9D6EA",
"ZX c #F1D0E9",
"AX c #FEFDE3",
"SX c #F6FDEB",
"DX c #FEFEEC",
"FX c #FAF8E9",
"GX c #FEF6F5",
"HX c #F6FDF4",
"JX c #FDFDF4",
"KX c #FEF6FC",
"LX c #F6FEFC",
"PX c #FDFDFC",
"IX c #F7F6FB",
"UX c #F1F9ED",
/* pixels */
"PXPXPXPXPXPXGXDXAXNXNXDXGXPXLXPXPXPXPXLXPXHXPXJXPXPXLXJXJXPXPXPXPXPXPXPXHXHXJXJXAXMXNXFXDXJXKXJXJXPXPXPXPXPXPXKXPXPXPXLXJXLXPXPX",
"PXPXLXPXLXPXJXAXMX~.3XNXAXJXDXPXPXKXPXKXPXLXJXPXPXKXLXJXJXKXPXPXPXPXPXJXSXSXJXDXNXF.2XnXNXDXFXPXKXJXJXPXPXPXPXPXPXKXLXPXJXJXKXPX",
"PXJXLXSXAXAXDXNXqX[.[.S.cXnXFXJXPXJXPXKXHXJXDXSXJXPXJXJXJXPXJXPXLXPXJXJXDXNXBXNXnX{.@X>.cXMXJXPXPXHXDXDXLXPXLXPXKXPXPXJXJXPXPXPX",
"JXJXSXAXn.%XNXbXu.s.'.f.'.].AXDXDXdX1XV.JXDX7 n.V.x NXAXDXDXJXPXKXJXJXDXn.MXNXcX{.s.'.g.@X*XJXPXJXdX$XV.PXPXHXPXPXKXPXJXJXPXHXLX",
"PXSXDXn.Y.W .X!.'.d.oXr.[.].NXAX=.M.T.e dXJXDX7 2 ).6X].NXDXHXPXHXJXFX=.E.! /.].'.f.OX0.c.+XAXJX=.H.N.w sXJXJXPXPXPXJXPXPXLXPXPX",
"PXJXJX-XQ O U p.c.w.v.oX9 M -XMXh ( h 2 FXaXH.BXcX] e.y.q NXJXPXDXAXMXbX..& I k.v.w.v.v.c = -XAXl Q w ; dXaXC.JXDXJXSXJXPXPXPXLX",
"PXPXJXDXAXbXp 4.' c t.z.G [ z ^.xX0XxXE J.:XD.~.Y r Z y * k BXAXcX2X2XbXcX(.p 4.` c t.v.G { s (.bXxXcXO.N.:XH.$X..NXDXJXJXPXPXPX",
"PXPXPXJXDXNX/.O O r @ v [ ;. .2 @.E.; #.A.A.F.#.1.C M U 6.k =X).[.'.[.qXbXcX/.O X c + M { &.Q ; @.W.$ =.M.F.N.n.M. .DXJXJXDXJXKX",
"PXPXPXPXSXAXMXcX(.;.& $ P %XI.I.; h vXR %.] W U ` y ;Xj : ^.9X|.XX#Xr.@X+XqXqXqX/.&.= $ T -XI.K.& a ^.W %.[ I R %.j GXJXDXFXDXAX",
"PXPXPXLXJX7 N.*.: xXwXcXA.hXtXL.M.E xX/.y u $ ;.W.( $XH.mXU C S t.f.h.>.].P A.$., qX0XMXN.hXyXK.7.U qX/.y y o 5.^...1XP.FXO. .BX",
"PXPXPXLXPXDX1 : 6XQ.|.R F.U.pXzX>.:.9X6X`.9XxXvXE M.gXJ.A.7./ / B k.XX&.).%Xq & XX|.W.W ~.G.yXgXS.] ].+X].7XcXbXE M.sXP.N.M.=.&X",
"PXLXPXPXJXDXNX#.y.i.i s :.O.U.K.:.Z 7X@X`.+XeXmXT n.J.G.=.$.d A N ' ` ! AXDX;X#.y.i.p f n.Z.I.G.:.~ {.'.`.+X2XMX5 B.J.C.*.-.E  X",
"PXPXKXPXKXGXFXT Q s : /.;Xm.4 q M v.g.,.#X[.2XBXNX>XV.4 T 3 ;.8.X g d -XDXDXDXw ..> & 0X*XB.4 e 9 f.'.s.#X[.2XNXAX<XN.4 5 j ,XSX",
"KXPXKXKXC.C.JXAXMX=Xf @.M.w 3XcXZ t.0.x.x.r._.MXvXmXAXAXAXAX5 T.) O *XBXP.P.JXDXNXbXV $.~.x DX-XY d.0.h.x.t.9XbXMXBXAXAXMXAXSXLX",
"PXGXKXaXuXiXL.JXDXMX).W j 2 DXNX[ 1.m b.j.<.C p [ E.> <XhXgXGX7 2 &XJXaXrXfXC.DXDXNXqXW 3 < DXMX[ <.b z.c.1.N i [ W.1 NXDXJXLXHX",
"JXDXX.H.aXkXG.X.NXbX`.y.bXMXNX5XW./ D m N / g  Xi p _.NXlXyXjXhXAXNXo.J.aXsX$X| MXbX`.y.cXvXAX5XW./ ' F N / t l.i h -XDXJXPXLXLX",
"vXI 7.( T.A.&.{ 9Xu.'.g.9XcX@.6.6.d a * ;.5XmXNX=X..3XzXI.CXzX1XVXR &.$.M.A.e.] `.r.g.h.9XbX*.Y.Y.f h & M.=XvXMX,X&XDXKXJXPXLXLX",
"VXk ) U R %.` f.f.oXg.s.u.9Xa U h : W.wXMXNXAX,X$X*.%XK.yXlXK.T xXk [ C Q ] [ d.g.h.x.s.u.wXf R k : =XcXbXMXMX,X&XB.DXHXPXJXPXPX",
"SXNX=X-.2 j u p.c.s.oXg.'.`.p  XcXbX9X!.u.7X*.A.6.6.@.! :X<X#.$.k xX(.6.: k i k.f.w.OXh.oXp.a W.cXcX9X+Xe.f.] y.Y.-.=.AXJXPXPXLX",
"JXAXMXbXMXvX}.r c g.g.0.g.f.) * ^.Y e.k.e.r.Y Y > % . h ;  .] 3.E bXbXxXxXxX}.i c x.x.r.c.k.' O Q.Y u.t.r.r.Z Y f : 2 AXJXPXPXKX",
"AXNX2X].bXxXC 2.H c.j.n N ' g   g 4.H 9.9.<.` 7XwX0X4XM.4 < k k =XbX6X2X0X Xg 2.' c.z.t N ^ a * S 1.` 9.q.{ ` 7X0XbXAXDXJXJXJXPX",
"NX=.{.>.q cXg / g i O + y a   }.g D N F H ' Y O W.%.% -X%XD.bXwXmX*.E.E.h  Xg / M u + X g a % }.r D B S H ' Y & ~.*.4 JXPXPXJXJX",
"DX5 ..P ; bX}.  * % M.*X<XMXNX .i.g M O d h M.;Xh * I T.:X$X;.W NX5 Q P 3 VX}.  & - M.*X,XMX,XR 4.t i * V q ~.*Xj 2 >XdXfXPXJXJX",
"JXJX-X*XNXBXz +.M.T FXJXGXsXsXAXh O (.bXNXH.P.AX0Xa 5.$.F.A.y.[ bXMXcXcXMX4Xk $.Y.} FXJXJXdX<X,Xa O xXMXMX$XV.AXMX^.n.N.V.} LXJX",
"LXLXJXDXGXJXAX4 7 <XJXhXkXjXZXCXAXMXMX..:XU.gXJ.W a ( W ! ] G B 7XW p /.MXAX<X4 e aXPXkXsXfXjXKXAXNXMXe gXrXfXJ.Q h k o.x 6 JXSX",
"PXHXPXPXKXuXgXL.FXDXFX1XjXCXrXlX<XBXBXm.U.I.hXF.;.U (.&.+ c x.0.Y ] y.#.4 I.gXU.JXJXDXaXjXCXtXjXsXFXnXF.G.gXkXD.M.U vX,X>XSXSXJX",
"PXLXPXKXuXZXtXP.V.BXmXn.1XkXpXG.*X .BXo.m.F.F.| @.s bXqX7X0.x.d.p.* $ q K.zXL.L.H.NXmX=.P.kXfXG.$X..nXO.m.F.F.X.@.T BXSXSXJXPXPX",
"HXPXPXPXL.I.yXkX~.+.l  .O.3X3XX.=.h NX<Xw w 1 M.=XxXcX].@Xh.x.s.e.9XqXMXF.U.gXhXN. .E  .n.:XhXX.=.l nX%Xw w 1 m.;XvXAXJXPXPXLXLX",
"PXGXPXJXo.F.F.A.U 5.+. Xj P ; S.).cXNXFXI.yXgX} =.Y.= !.f.0.OXd.oX!.a  XI A.F.A.U 8.( ^.P P > M.&XmXMXNXP.yXsXT #.*.5 PXPXPXPXLX",
"KXPXPXFX} =.E U / / W 0XcXqX9X9 ] ~.4 kXiXjXL.gXx - W.M 0 v.d.0.c.l.) # s @.I Y / ^ ( wXwX_.Q.h %.Y.4 GXyXZXP.aXw 2 DXJXPXPXPXPX",
"PXPXHXPXAX=X5.X t t |.wXcX].u.8XV % hXU.tXZXiXjXaXBXA 2.G z.z.0 v H g   VX&X%.X t t !.cXqX!.u.7Xp ; hXrXtXZXuXZXaXHXJXPXKXPXPXPX",
"SXJXJXJXJXNXk [ a.@ Z Z y.`.v.e.8XT $XjXpXCXtXzX1XmXg D N 9 + o r t    XBXBXa ' a.+ Z Z r.XXf.r.p.h :XlXiXCXuXjXaXDXDXSXJXPXPXLX",
"JXDXBXw aX:X;XP = p.K L b q.9.<.g 8.^.<XU.3X3Xw +.) g   # ; F.3XE 8.) h dX1XbXd $ XXF L b q.q.<.N 8.~.hXC.gX<Xk +.) z VXJXJXPXPX",
"JXDX5 B.$XH.w ;X9Xe.b.K J m m H t ) @.n.| %X;XR 3./ d xXMXhXL.K.NX .p $.N.$X3 =XqXy.z.K K b S ' r [ -.=. .&X4XU 3.) R MXSXJXPXPX",
"PXSX,Xz E 3 2 bX9Xh.x.0.n @ &./. X* : j V O g g A _ 4XMXNXI.U.pXJ.NX;XP ..j > qXqXf.x.0.n @ &.^.4X- - k f # g i _ I =XAXFXPXPXPX",
"PXJXAXVX-.W.qXcXu.r.x.h.c.f.bXNXbX4XT.Y.% # g ) 8.f ).bX..F.:XzXF...cXwX$.Q.9X9Xu.r.x.h.v.!.qXMXMX;X^.;.# # f %.6.k ;XnXDXPXPXLX",
"PXJXAX=.8._ p.!.f.g.OX0.v.p.bXMX-.Y.~.3 <XNXmXj % !.+Xp.] ;.F.S.] 4.C ) i._ `.`.f.x.v.0.v.!.bXbX@.7.E.P <XMX,Xj , ).6X6XMXDXJXLX",
"JXPXAX,XR O Y c.XX0.x.g.n M 4XbXh Y 3 - DX1XH.BXxX[ a.t.y ] ;.! B ' u |.C O Z f.oX0.v.g.r u =XbXs Z V , <X%XH.NXqX] i.4.P AXHXLX",
"JXJXJXSXNXbXV &.` M z.j.' ^ p ).qXwX0X..F.:XV.T.U t v r X V = = >.`.+XcXqX.X= e.G v k.z.{ ^ V /.qXwX9X! F.:XP.N.U r N g : >XJXHX",
"PXPXPXJXDXNX*X& O u o N ` 7.! > #.W.* @.N.H.$X-.3.N i Z 7.V 9XXX'.f.@X9XcXcXQ.O O r X C ] 7.! > @.E.& ] S.F.F.*.3.N t A Y.l dXJX",
"PXPXPXPXFXAXNXbX).&.: & T %XpXU.; > xX .#.$.R U [ V Q.j :  X8Xl.v.OX0.XX[.bXcXqX.X6.# - T :XgXU.; k (.I $.[ I U [ i .Xh > &XSXSX",
"PXPXLXLXJXe H.*.& 9XxXMXF.zXpXU.S.( xX^.d M O &.!.Q %XF.^.U A A 9.x.j.r.].q S.#.$ cXVX&XH.gXtXU.N.R bX/.u i o &.Q.I *XN.MX .o.VX",
"PXPXPXPXJXFXq , XXp.W.Y F.G.pXpXS.] qX6X].qXcXbX! S.%XJ.Y.8.) D v j.k.[ bXNXT $ +X!.!.( F.U.iXzXE.] ).6X+X9XcXbXE A.:XH.Y.;.-. X",
"PXKXPXPXJXDXAX#.t.a.i a #.O.tXU.:.Z 8X`.`.[.6X%Xw m.K.F.*.+.U A F D ' R AXDXMX:.u.e.M = :.X.P.G.$.~ !.+X`.+XeXNXw n.F.H.=.3.l  X",
"PXPXKXLXLXJXBXT R p O ^.=XB.4 w 9 v.c.t.#X].2XMX;X%XN.4 5 T *.&.O g p *XDXKXDX5 I V O 9X).M.4 e 9 x.v.0.OXXX*XNXNX<XV.< 5 T <XDX",
"PXPXPXGXC.uXJXDXMX=Xk +.Y.l ,XMXZ d.9.x.c.p.wXbXcXMXMXAXAX3XT A.] * ;XDXP.P.FXAXvX(.p $.7.T <XMXZ w.q.d.z.t.qXMXMXMXNXAXBXFXJXJX",
"PXKXKXgXyXiXL.JXJXBX).Q 3 < AXmX] 9.m j.z.1.Z u [ Y.< >XkXsX3Xe 2 &XFX:XrXyXP.FXAXNX).W 3 < DXNX[ 1.b j.z.<.C i ) W.< SXJXJXPXJX",
"JXJX| K.I.hXK.X.NXMX].u.cXMXBX5Xi.` D m N G i |.i f ,XJXjXaXhX<XAXNXo.H.aXsXK...AXMX].y.bXNXNX5XW.` ` B N ` y }.f s ,XJXPXPXLXJX",
"NXE 6.] Y.y.&.] 7Xu.'.'.nXnXO.;.6.d p $ ;.;XbXMXcX| aXZXyXCX3X-XVXR 8.] M.M.e.` 7Xu.'.'.qXbX@.6.y.V h > M.*XMXMX=X&XDXPXPXPXLXJX",
"mXP ( U R %.' d.g.g.g.s.{.7XV W P : ^.cXbXMXNX,X^.=.gXG.yXhXH.w mXk / Y W %.G j.v.f.g.,.{.qXV U > = ;XnXNXAXAX,X&Xn.DXJXPXPXLXLX",
"JXAX4X-.: k M p.v.w.v.x.v.k.r }.qXcX9XXXu.9X=.Y.5.Y.=.| <X*X#.%.l nX(.;.: h r t.g.w.OXg.'.p.y }.9XqX7X+X>.).#.;.5.-.=.BXSXLXPXPX",
"JXAXMXcXbXxXQ.M 0 d.v.q.c.k.' X }.Y i.c.r.u.Y I d % $ h > E $.&...BXcXcXMXqXk.t n d.v.r.c.k.) O }.Y e.p.t.y.Z Y a & : SXJXPXPXLX",
"FXNX(./.bX0XC 1.H c.d.t N ' i   g 2.D L 9.9.` /.0XxX(.A.1 1 j 3 (.vX6X].MX(.A 2.G c.j.t N / = X F 2.H q.q.<.[ 9X0XcXNXJXPXPXPXPX",
"FX*.W.i.j xXa ^ N r X + i f *  Xt D m m H ` Y & Y.-.2 NX%XD.bXbXbX@.y.E.T (.i D N i O X i a * !.t D v B G { Y , E.*.4 JXPXKXPXPX",
"AX5 Q P 2 MX.XO & $ ;.;X5XMXNX .W.r i O V q A.2Xk # E M.%X~.Y.U vXl Q q < MX X. % - M.&X&XAXNXE 8.g i : P q S.*XP : *XdX:XJXPXKX",
"DXAX-X*XNXBX3 @.Y.l AXDXGXsXkXFX3 %  XcXMXK.G.NX XA 8.@.F.M.7.) xXxXbXMXAXNX3 -.N.} AXJXJXsXsX<Xf * vXBXNXF.F.NXbX&Xn.N.V.e PXPX",
"JXPXJXDXSXDXAX< x dXJXfXZXuXZXIXDXNXMX| :XI.gXJ.k g ) U R %.) U wXU d (.AXFXFX4 e FXFXsXjXfXjXGXAXNXNXZ.:XU.aXJ.E k z  .x 6 PXPX",
"LXLXPXPXJXJXSXJXSXJXFXfXkXIXL.jXsXSXBXn.G.gXzXH.W.g  X-.$ s k 0XR $.Y.@.4 :XaXU.JXFXAX:XkXCXtXkXdXNXNXm.U.gXhXN.M.R VX,XfXHXPXLX",
"PXLXPXLXJXJXHXPXJXFXDXB.P.jXyXP.$X .AXo.N.B.K...+.z vXNXAXAXFXAXmX2 - l J.lXtXtXJ.NXbX=.K.lXyXL.$XE NX| m.F.$Xo.@.l mXSXJXLXLXPX",
"PXPXPXPXPXPXPXPXJXSXAXo.m.hXjXX.=.l SX<Xe e 1 B. XVXAXJXJXJXPXPXSXSXUXSXV.P.yXjXH. .! ..m.:XkXZ.n.l NX:Xe w 2 M.^.mXSXSXLXLXJXJX",
"PXPXHXLXLXPXKXPXJXJXDX<X7 e 8 H.dXDXDXJXDXSXAXl -.T.6 PXJXPXPXPXPXLXBX>X .M.H.F.E 5.-.=X3 } 6 V.>XSXDXJXDXAX>Xl M.M.4 FXJXSXJXJX",
"PXPXPXPXKXPXPXPXPXPXSXDXAXFXDXDXJXJXPXPXHXJXJX<X5 2 dXLXPXJXPXLXLXPXUX2 k %.E ..@.+.E mXNXAXFXDXLXHXPXJXJXJXSX>X5 < AXJXJXJXJXJX",
"PXPXIXPXPXPXPXPXPXPXPXPXUXJXJXHXJXJXKXLXPXDXLXPXJXHXHXSXPXKXPXPXPXKXSXDXBX-XM.< l k >XSXSXSXJXPXPXPXPXPXJXJXLXPXSXSXPXPXPXPXPXPX",
"JXPXPXPXPXPXPXPXPXPXLXPXPXLXJXPXJXJXPXPXHXPXPXPXPXHXJXJXLXPXPXPXPXJXJXDXDXAXMXNXBXmXUXUXHXJXPXPXLXPXPXPXJXPXPXPXLXHXPXPXKXPXPXLX"
};
