/* XPM */
static char *f6767ac3a3d74b54b2bd7869838739091JQk2HxZBRnOn26F[] = {
/* columns rows colors chars-per-pixel */
"34 56 204 2 ",
"   c #0A0305",
".  c #05040A",
"X  c #0A060C",
"o  c #0A0A0D",
"O  c #080605",
"+  c #12060E",
"@  c #1A020A",
"#  c #150302",
"$  c #040413",
"%  c #0A0613",
"&  c #0C0A13",
"*  c #0C031C",
"=  c #07081D",
"-  c #0D0B1B",
";  c #05031E",
":  c #110214",
">  c #14051B",
",  c #170815",
"<  c #171417",
"1  c #230002",
"2  c #290001",
"3  c #300000",
"4  c #280010",
"5  c #23161D",
"6  c #331314",
"7  c #030324",
"8  c #090524",
"9  c #0A0A24",
"0  c #04042B",
"q  c #0D0A2C",
"w  c #08072B",
"e  c #11072C",
"r  c #1A1724",
"t  c #161827",
"y  c #1C1B26",
"u  c #19162C",
"i  c #1D1C2C",
"p  c #151528",
"a  c #020434",
"s  c #03023B",
"d  c #080739",
"f  c #1B1435",
"g  c #161C33",
"h  c #1C1B33",
"j  c #1C1B3C",
"k  c #171636",
"l  c #201E2C",
"z  c #241A25",
"x  c #211D35",
"c  c #221A3C",
"v  c #1E2335",
"b  c #1E2039",
"n  c #21202D",
"m  c #242036",
"M  c #2C2B3D",
"N  c #27243D",
"B  c #302D3E",
"V  c #2F3035",
"C  c #33323C",
"Z  c #37383D",
"A  c #520108",
"S  c #5E0710",
"D  c #771D2B",
"F  c #5E2C35",
"G  c #6D242E",
"H  c #652F2F",
"J  c #7F252E",
"K  c #72312F",
"L  c #672934",
"P  c #762E33",
"I  c #6D3435",
"U  c #6E3639",
"Y  c #653B3D",
"T  c #763637",
"R  c #5C403D",
"E  c #000445",
"W  c #1C1C41",
"Q  c #181749",
"!  c #1E235A",
"~  c #2A2644",
"^  c #24264D",
"/  c #2C2D4C",
"(  c #252040",
")  c #322E44",
"_  c #302C4D",
"`  c #2F3045",
"'  c #333244",
"]  c #34334B",
"[  c #38384A",
"{  c #242455",
"}  c #2A2C53",
"|  c #24255D",
" . c #262858",
".. c #2A295A",
"X. c #322F56",
"o. c #2E315A",
"O. c #363151",
"+. c #33375E",
"@. c #221F6C",
"#. c #1F226F",
"$. c #242564",
"%. c #252B63",
"&. c #2A2964",
"*. c #24246D",
"=. c #2A276B",
"-. c #2C2B6A",
";. c #292464",
":. c #332C60",
">. c #2C3262",
",. c #3D3C63",
"<. c #3A3D6D",
"1. c #36376B",
"2. c #282775",
"3. c #272973",
"4. c #272775",
"5. c #3C3E75",
"6. c #34367C",
"7. c #343A7C",
"8. c #3A3A7B",
"9. c #373777",
"0. c #433D56",
"q. c #493C4D",
"w. c #423E63",
"e. c #413F71",
"r. c #3F405C",
"t. c #424355",
"y. c #705A5C",
"u. c #404461",
"i. c #43427A",
"p. c #414175",
"a. c #81242E",
"s. c #954E52",
"d. c #8B5258",
"f. c #99535C",
"g. c #A67C7D",
"h. c #90897F",
"j. c #2E3586",
"k. c #363583",
"l. c #363C84",
"z. c #3C3C83",
"x. c #34358B",
"c. c #373A8B",
"v. c #3A3C8C",
"b. c #3A3683",
"n. c #2F3498",
"m. c #343695",
"M. c #363A97",
"N. c #3A3B93",
"B. c #32359B",
"V. c #38399A",
"C. c #383AA2",
"Z. c #3D4186",
"A. c #3A4094",
"S. c #444282",
"D. c #7C7DA9",
"F. c #817AAE",
"G. c #847DB0",
"H. c #86868A",
"J. c #89868E",
"K. c #8A8A8C",
"L. c #888687",
"P. c #8A8993",
"I. c #8C829A",
"U. c #9A999D",
"Y. c #B0A99F",
"T. c #AAA198",
"R. c #9E9EA2",
"E. c #9E9EAA",
"W. c #9698BF",
"Q. c #8985B0",
"!. c #A99EAA",
"~. c #A29ABF",
"^. c #BF9FB4",
"/. c #9FA0A5",
"(. c #A1A0A5",
"). c #ACA6AB",
"_. c #A8A5A8",
"`. c #B4A5A5",
"'. c #B1AAA0",
"]. c #AFA3B9",
"[. c #C799A6",
"{. c #FFD9D8",
"}. c #FFE0DF",
"|. c #FFDDE3",
" X c #FFE9E9",
".X c #FFF2EF",
"XX c #F7F6F5",
"oX c #FDF3F5",
"OX c #FCFCF6",
"+X c #F6F6FD",
"@X c #FCF5FC",
"#X c #F7FAFE",
"$X c #FFFFFD",
"%X c #FEFEFD",
"&X c #FDFDFF",
"*X c #FFFDFF",
"=X c #FFFCFF",
"-X c #FCFFFF",
";X c #FFFEFF",
":X c #FEFFFF",
">X c white",
",X c #FEFEFF",
"<X c #FEFDFD",
"1X c #FEFEFE",
/* pixels */
">X>X>X>X>X>X>X>X>X>X>X>X>X>X>X%X%X>X< % $ >X#X>X=X>X@X>X=X+X>X-X>X>X",
">X>X>X>X>X>X>X>X>X>X>X>X>X>X>X>XOX>X+ z X =X=X>X>XoX=X=X@X>XOX#X>X>X",
">X>X>X>X>X>X>X>X>X>X>X>X>X>X>X>XOX@X=X  + `.=X=XOXOX#X=X=X>X#XOXOX>X",
">X>X>X>X>X>X>X>X>X>X>X>X>X>X>X>X>X@X, @X`.y.oX.XY .XOX>X=XOX>XOX>X>X",
">X>X>X>X>X>X>X>X>X>X>X>X>X>X>X>X#X>X@X=X@ Y d.|.P d.@X@X%X%XOXOX%X>X",
">X>X>X>X>X>X>X>X>X>X>X>X>X>X>X>X>X>X>X  6 3 f.A S f.@X=X>XOXXX%X%X>X",
">X>X>X>X>X>X>X>X>X>X>X>X>X>X>X>X#X#X=X5 1 3 P s.A I oX=X-X>XOX-X>X>X",
">X>X>X>X>X>X>X>X>X>X>X>X>X>X>X>X-X-X=X  2 I |.T P I oX>X>X>X#X-X>X>X",
">X>X>X>X>X>X>X>X>X>X>X>X>X>X>X>X>X=X=X@ L.U {.|.K  XoX=X=X@X>X=X>X>X",
">X>X>X>X>X>X>X>X>X>X>X>X>X>X>X>X>X=X@X# 3 H T s.P I OX@X=X@X=X>X>X>X",
">X>X>X>X>X>X>X>X>X>X>X>X>X>X>X>XOX=X=X=X2 K G J a.G .X%X>X=X@XOX=X>X",
">X>X>X>X>X>X>X>X>X>X>X>X>X>X>X>X=X=X=X  @ [.G D D G oXOXXX>XOX>X>X>X",
">X>X>X>X>X>X>X>X>X>X>X>X>X>X>X>X=X-X#Xt.0.4 [.L L H oXOX>X-X@XOX>X>X",
">X>X>X>X>X>X>X>X>X>X>X>X>X>X>X>X=Xy t r.0.8 ^.[.4 @XOXOX-X-X>XOX>X>X",
">X>X>X>X>X>X>X>X>X>X>X>X>X>X>X>X' ] h ,.5.,.: , : q.>XOX@X>X#X>X>X>X",
">X>X>X>X>X>X>X>X>X>X>X>X%X>X>X>X' O._ W 1.e.0 8 e +.#X>X#X>X#X>X>X>X",
">X>X>X%X>X>X>X=X-X%X%XOXOX>X-XC ] ) O.c Q ;.8.s 0 0.[ -X#X>X>X>X>X=X",
">X>X%X%X>X>X>X>X>X>XOXOX>X#XZ C B ] O.k i.=.b.8.d ,.u.#X#X-X>X>X>X>X",
">X>X%X%X>X>X=X>X-X>XOX#X>X#X' ' ' ` W Q 6.k.2.l.s <.,.#X#XOX%XOX>X%X",
">X%X%X%X%X>X>X>X>XOXOX>X-X>X' M M b W | v.4.Z.3.E 1.o.#X-X>XOX%X%X-X",
"%X>X%X%X>X>X>X=X>X@X-X>X>XC M [ v g ! >.#.A.l.E Z.<.! #X-XOX%X%X%X>X",
"%X%X%XOX%X>X>X>X=X>XOX-X>XC ' ] t g } | #.v.7.E 7.5.o./ -X@X%XOX>X>X",
">X%X%X%X%X>X>X>X>X>X-X>X#XC ' u i #X#X .%.7.%.a ! o.} ] #X@X>X>X>X>X",
">X>X>XOX>X>X>X>X-X-XOXOX>XC ' h $ >X#X/ &.&.5.a a 0 j ` Z =X=X=X>X>X",
">X>X>X%X%X>X>X>X%XOXOXOX>XV n y % @X@X) X.{ ..a a w g ] C >X>X>XOX>X",
">X>X>X%X%X%X>X>X>X%XOXOX>XC y - + + @XJ.~.G.a a a W.g t y o OX>X>X@X",
">X>X>X>X%X%X>X>X-XOXOXOXOXZ i . + @ `.J.c d s s Q.D.b v & O O OXOX>X",
">X>X>X>X%X>X>X>XOX>XOX-X-X#X' * : !.!.!.e d ;.;.%...W g o O # OX%X@X",
">X>X>X%X%X%X>X>X-X%XOXOX>X#Xx ; > ].I.Q.F.S.z.8.5.e.,.@X=XL.Y.Y.`.OX",
">X>X%X%X>X%X>X>X>X@X>X>X@X=Xf c f e 7 X.-.6.b.z.s ..1.>X@XOXT.h.OXOX",
">X>X%X%X%X%X>X>X>X>X#X#X#Xh c 7 0 d e.2.*.k.Z.7.s &.e.+.=XOXOXOX%XOX",
">X>X%X%X%X%X>X>X=X>X>X#Xh 8 0 d e.9.v.x.N.c.c.$.s a ..w.@X%XOXOX%XOX",
">X@X%XOX%X%X%X>X=X@Xg j 7 0 0  .7.l.m.M.M.x.c.*.w 7 ^ O.@X>X>X>X>X>X",
"#X>X@X>X#X>X#X>X>Xu 9 7 w +X+X<.7.j.n.B.M.N.c.%.7 9 7 / =X=X>X#X>X>X",
"#X>X>X-X=X@X=Xy t $ $ #X#X#X+X<.8.A.B.C.m.x.c.>.0 b q / M @X>X>X>X>X",
">X@X#X=X@Xx u > & >X>X#X>X#X,.5.6.j.B.C.m.x.2.#.0 u c 9 B #X#X>X>X>X",
"=X#X=Xh f ; ; $ -X@X-X>X=X+X} ..8.x.V.m.N.v.*.-.w ~ f 8 - =X>X=X>X>X",
"r l f u 8 8 +X=X-X>X%X>X+X=X~ } &.3.x.N.x.3.3.| 7 g c u % =X>X>X>X>X",
"% $ $ p =X@X=X=X>XXX>X>X>X>X@X7 a -.*.*.S.@.&...9 h h N r >X>X>X>X>X",
"=X>X#X@X=X=X=X=X>X=X@X=X=X#X>X% 0 s ;.&.;. ...0 h h m l - =X>X=X>X>X",
"=X>X>X>X>X>X%X%X>XXX>X@X>X>X>Xo h 0 w ..} 0 0 7 h n x % & +X>X>X>X>X",
">X>X>X>X%X%XOX%XoX>X>X>X>XXX< . y v 7 9 / 7 9 m y % % . X >X-X>X>X>X",
"%X%X>X%X%X%XOX%X%X%XOXOX@X>XO o X n n = $ = = $ & & & & @X-XOX>X>X>X",
"OX%XOX%X%X%X%X%XOX%XOX%XOX-Xo . o n y y - & . & & X . X >X>X>X#X>X>X",
"OXOX%X%X>X>X>X>XOXOXOXOX>X-X. & . & o o & #X-XH.X . & >X>X-X@X-X>X>X",
"%X%X%X>X>X=X=X>X%X%XOX%X@X-XP.$ & X o X >X#X-XJ.P.o >XXX-X>X-X-X>X>X",
"%X%X>X>X>X>X=X-XOX>X>XXX-X-X/.P.X X . >X-X>X/./.J.J.>X>X#X#X#X-X>X>X",
"%X>X>X>X=X>X>X>X>XOX>X>X-X-X/.P.P.#X>XXX>X>X(./.J.>X>X#X>X>XOX#X>X>X",
">X>X>X>X>X>X>X>X>X@X-X>X>X>XR.J.H.-X>X>X#X>X/.(.H.=X>X>X>X>X-X>X>X>X",
">X>X>X>X>X>X>X>X>X%X>X>X>X#X_.L.K.-X@X>XOX-XR.H.K.>X>X-XXX>XOX>X>X>X",
">X>X>X>X>X>X>X>X>X>X>X>X>XXXH.K.H.>X>X>X>X>XH.L.L.>X>X-X>X>X>X@X>X>X",
">X>X>X>X>X>X>X>X#X>X>X>X@X>XH.K.>X>X@X>X>X>XK.H.%X%X#X>X>X>X#X>X>X>X",
">X>X>X>X>X>X>X>X>XOX>X#X>XXXH.o >X>X#X>X>X-XK.L.>X#X>X@X@X>X>X@X>X>X",
">X>X>X>X>X>X>X>X%X>X-X>XXX>XR.o >X%X%X>X@XH.H.o U.>X>X>X-X>XOX>X>X>X",
">X>X>X>X>X>X>X>X@X>X>X>X#Xo R.L.>XXX@X>XOXo o L.K.H.>X>X>X-X%X>X>X>X",
">X>X>X>X>X>X>X>X>X>X#X>X>X>X-X>X>X>X>X-X>X#X>X>X-X>X>X>XOX>X>X>X>X>X"
};
