/* XPM */
static char *f6528200b7b94f65fb1596977c73f8a8TRjeDPaSc8Y5oCo8[] = {
/* columns rows colors chars-per-pixel */
"50 50 208 2 ",
"   c #14182E",
".  c #181A2F",
"X  c #1A1B30",
"o  c #221E33",
"O  c #1F2331",
"+  c #2C2335",
"@  c #252A39",
"#  c #3B293B",
"$  c #332638",
"%  c #353A36",
"&  c #313736",
"*  c #2B3134",
"=  c #422C3C",
"-  c #47313E",
";  c #49333E",
":  c #513F3F",
">  c #51343F",
",  c #3C4138",
"<  c #454B3B",
"1  c #52583E",
"2  c #2A2C41",
"3  c #3D3445",
"4  c #593742",
"5  c #4C3646",
"6  c #623D46",
"7  c #643B49",
"8  c #564241",
"9  c #574841",
"0  c #585F40",
"q  c #484B4D",
"w  c #664746",
"e  c #7D4B4E",
"r  c #72464B",
"t  c #744651",
"y  c #755155",
"u  c #5D6541",
"i  c #666844",
"p  c #6E7546",
"a  c #757D47",
"s  c #747C4D",
"d  c #6D6C50",
"f  c #545769",
"g  c #595B72",
"h  c #695768",
"j  c #5E6367",
"k  c #646778",
"l  c #696E66",
"z  c #A53E78",
"x  c #834C4F",
"c  c #8F4D57",
"v  c #844853",
"b  c #924C5B",
"n  c #985857",
"m  c #965159",
"M  c #9B555A",
"N  c #975B57",
"B  c #875550",
"V  c #A55B5C",
"C  c #AA5E5D",
"Z  c #9C6F54",
"A  c #9F7255",
"S  c #856C4D",
"D  c #AC665E",
"F  c #B2645F",
"G  c #B0775B",
"H  c #994667",
"J  c #9E436D",
"K  c #974A64",
"L  c #985A64",
"P  c #92556E",
"I  c #A14172",
"U  c #A55670",
"Y  c #91636A",
"T  c #A96667",
"R  c #B56560",
"E  c #B86761",
"W  c #B96A63",
"Q  c #A36A72",
"!  c #B27677",
"~  c #C67464",
"^  c #C17F60",
"/  c #C27C76",
"(  c #7C844A",
")  c #858B4C",
"_  c #87904C",
"`  c #929C4F",
"'  c #959F50",
"]  c #99A351",
"[  c #A2AC54",
"{  c #A8B255",
"}  c #AFBA56",
"|  c #A8B255",
" . c #B4BF58",
".. c #ADB56D",
"X. c #8F9663",
"o. c #DB8968",
"O. c #D08566",
"+. c #D68D66",
"@. c #E89F69",
"#. c #E39769",
"$. c #F09F6D",
"%. c #F3A46D",
"&. c #ECA16B",
"*. c #B9C459",
"=. c #BCC76A",
"-. c #C8D45D",
";. c #C4D05C",
":. c #CAD663",
">. c #CDD86D",
",. c #CCD769",
"<. c #CED874",
"1. c #D3DC7D",
"2. c #D0DA75",
"3. c #C4CE72",
"4. c #747786",
"5. c #AD3984",
"6. c #B3348D",
"7. c #B23E8C",
"8. c #BC2D9B",
"9. c #BA2F97",
"0. c #B83695",
"q. c #BF2AA0",
"w. c #D11EBB",
"e. c #C22AA3",
"r. c #C626AA",
"t. c #CE23B5",
"y. c #CD34B5",
"u. c #B3468D",
"i. c #B84D94",
"p. c #927483",
"a. c #AD7A84",
"s. c #B6758D",
"d. c #CB53B2",
"f. c #D61BC2",
"g. c #DE15CE",
"h. c #D91BC5",
"j. c #DF14D1",
"k. c #E70EDC",
"l. c #E313D6",
"z. c #DB2DCA",
"x. c #E32CD4",
"c. c #EC0CE3",
"v. c #F207EC",
"b. c #F605F2",
"n. c #F903F6",
"m. c #FC01FB",
"M. c #F417EF",
"N. c #F731F3",
"B. c #D64EC2",
"V. c #FA46F8",
"C. c #FC54FB",
"Z. c #E053D0",
"A. c #7E829C",
"S. c #828599",
"D. c #948F92",
"F. c #B6868A",
"G. c #B38A92",
"H. c #BC969C",
"J. c #A08083",
"K. c #9798A8",
"L. c #8B8EA4",
"P. c #AD97A4",
"I. c #9FA1B0",
"U. c #AEAAB2",
"Y. c #C8908C",
"T. c #C58DA8",
"R. c #C9A7AB",
"E. c #D4ABA9",
"W. c #CDADB2",
"Q. c #D5B6B9",
"!. c #D2B6B5",
"~. c #B9C08B",
"^. c #D5DE84",
"/. c #C8CE9A",
"(. c #D8E08B",
"). c #DBE395",
"_. c #CED2B1",
"`. c #DEE6A2",
"'. c #E3E9AB",
"]. c #E1E7A6",
"[. c #E5EAB7",
"{. c #A3A7C2",
"}. c #A8A8C0",
"|. c #B5B8CD",
" X c #BCBCCE",
".X c #CABAC2",
"XX c #D79BC4",
"oX c #BDC0C5",
"OX c #CBC4CA",
"+X c #D8DACF",
"@X c #C8CADA",
"#X c #CDC8D4",
"$X c #D7D6DB",
"%X c #E3CCCD",
"&X c #E4D9D9",
"*X c #E4D0D0",
"=X c #DCE0C5",
"-X c #EAEEC7",
";X c #E8E6DA",
":X c #EFF1D9",
">X c #F4F6DD",
",X c #F0F4D5",
"<X c #EEF2CC",
"1X c #DBDDE6",
"2X c #F7F9E8",
"3X c #FFFFFE",
"4X c #FAFBF5",
"5X c #EFE7E5",
/* pixels */
"-.-.-.-.-.-.-.-.-.-.-.-.-.-.-.-.-. .( <                     < S  .-.-.-.-.-.-.-.-.-.-.-.-.-.-.-.-.-.",
"-.-.-.-.-.-.-.-.-.-.-.-.-.-.-.-.-.*.( <                     < ( *.-.-.-.-.-.-.-.-.-.-.-.-.-.-.-.-.-.",
"-.-.*.| ] ` ` ` ' ' ' ' ' ` ' ` ` ) u % . o + # # # # $ O   % u _ ` ' ' ` ` ` ` ` ` ` ` ' ' | *.-.-.",
"-.-.| ) u 1 u 1 1 u 1 1 1 u 1 u 1 1 < O . $ - 6 4 7 4 - $   * , 1 u 1 1 1 u 1 u 1 u 1 u 1 u ) | -.-.",
"-.-.` i * o + O O O O O O O O O O O X . X = 6 c c v x 6 = o . X O O O O O o O X O O o o O * i ' -.-.",
"] [ S i 8 < : : : : : : : : : : : < : : : e B F D D D B r < : : : : : : : : < : : < : < > 1 p S ] ] ",
"u i d S Z Z Z Z Z Z Z Z Z Z Z Z Z Z Z Z A G ^ O.O.O.O.O.G Z D Z Z Z Z Z Z Z D Z D Z Z Z Z Z S p u i ",
"O * 0 A +.@.@.@.@.@.@.@.@.&.@.&.$.@.@.@.@.&.%.%.%.%.%.%.@.@.@.@.@.@.@.@.@.@.@.@.@.@.@.@.$.#.Z 9 O * ",
"    < D #.$.$.$.$.$.$.$.$.$.$.$.$.$.$.$.$.$.$.$.$.$.%.$.$.$.$.$.$.$.$.$.$.$.$.$.$.$.$.$.%.#.Z 4     ",
"    : N O.o.o.o.o.o.o.o.o.o.o.o.o.o.o.o.o.o.o.o.o.o.o.o.o.o.o.o.o.o.o.o.o.o.o.o.o.o.o.#.o.O.B :     ",
"    ; x ~ ~ ~ ~ ~ ~ ~ ~ ~ ~ ~ ~ ~ ~ ~ ~ ~ ~ ~ ~ ~ ~ ~ ~ ~ ~ ~ ~ ~ ~ ~ ~ ~ ~ ~ ~ ~ ~ ~ ~ ~ W B -     ",
"    ; e F W F F F F F F E F F F R R R R R R R R F F F F F E F F R R R R R R R R F F F F W F e -     ",
"    ; e D F F V C C C V V V V V V C V C V V V V V V V V C V V V V V C V V V V V C C C F E F e -     ",
"    ; e F F V n m m m M m m m m m m m m M m M m m M m M M M m M m M m M m M m m m m m C F F e -     ",
"    ; e F F V m c c c b b z b z z z z H z b b c b c c c c c c c c c c c c c c c c c m V F F e -     ",
"    = e F F V m c c c b z 6.8.8.9.e.q.q.q.z z c c c c c c c c c c c c c c c c c c c c V F F e -     ",
"    - e F F V m c c c J 6.r.f.g.g.l.l.l.g.e.z b c c b c c c c c m c c c c c c c c c m V F F x -     ",
"    - e F C V m c c c J 8.h.c.v.b.m.m.m.v.f.9.H H H H H H H H H J P H H K L L L m m m V F F e ;     ",
"    - e F F V c c c c J e.g.v.b.m.m.m.m.n.l.t.8.8.8.8.8.8.8.0.0.i.0.i.7.7.i.a.J.Q L L V F F e -     ",
"    - e F F V c c c c z q.l.v.n.m.m.m.m.m.v.k.g.g.g.g.g.g.l.x.x.Z.z.z.f.y.d.T.H.G.Q L T F F e -     ",
"    - e F F V m c c c z e.l.n.n.m.m.m.m.m.m.m.m.n.m.m.n.m.m.M.N.V.N.N.M.x.Z.XXW.H.a.Q T W E e -     ",
"    - e F F M m c c c I r.l.n.m.m.m.m.m.m.m.m.m.m.m.n.m.m.n.m.N.V.V.x.k.x.B.T.H.H.H.F.a.! E e -     ",
"    - e F F V c c c c z r.l.n.n.m.m.m.m.m.m.m.m.m.m.m.m.m.m.M.N.C.V.N.k.z.y.s.G.H.R.W.Y./ F x -     ",
"    - e F F V m c c c I r.k.m.m.m.m.m.m.m.m.m.m.n.n.n.n.n.m.M.V.C.C.N.M.z.0.u.! H.Q.%XE.Y.F x =     ",
"    - e F F V m c c c z 8.g.v.b.n.m.n.n.b.k.l.h.h.h.h.f.f.f.z.B.B.d.B.t.e.u.U Q G.W.Q.E.E.F.Y 5     ",
"    - e F F V c c c c z 8.w.k.c.v.b.b.c.c.f.r.6.0.7.6.6.6.6.6.u.i.i.u.z z J K Y a.H.!.W.E.W.J.9     ",
"    - e F F V c c c c J 6.w.l.k.v.v.v.c.g.r.5.b b b c b c b c c b b b b b c c L Q G.R.!.%X*XD.f     ",
"    - e F F V m c c c H z 8.r.w.w.f.w.t.r.6.I c c c c c c c c c c c c c b c c M Q F.H.!.%X&XP.f     ",
"    - e F F V c c c c b I z 5.6.6.6.6.6.5.z H c c c c c c c c c c c c c c c c L Q Q G.W.*X&XP.f     ",
"    - e F F V c c c c b b K b b K K K b b b b c c b c c c c c c c b c c c c c b L Q a.R.*X;XK.f     ",
"    - e F F C M M M M M m M M M M M m M M M M M M M M M M M M M M M M M m m m V Q Q F.R.%X5XU.k q q ",
"    - x F E F C C C C C C C C C C C C C C C C C C C C C C C C C C C C C C C C T T ! O.E.%X5X+XI.A.A.",
"    - e D F E F F E F E E F F E E E E E E E F F W F F W F F W F W F F W E E E W / / Y.E.%X5X&X#X XoX",
"% < 9 r n n V n n n n n V n n V n m n n n n V V C V V D n n n n V n n V N m N N T ! Y.W.*X5X;X&X+X+X",
"( a d w w 6 6 6 w 6 6 6 6 6 6 6 6 w 6 7 w r r x x x x e r 6 w 4 6 6 6 6 7 w 8 r Y ! P.Q.&X5X;X;X+X=X",
"} } _ u $ + + + + + + + + + + + + + + + + = > 6 6 6 6 > = + + + + + + + + + + 3 j S.U._.1X4X:X-X[.[.",
"-.-.] p < & % % % , % % % % % % % & * O . $ = 4 > 4 7 > $ . + @ & % % % % % % q l S.U._.=X;X<X[.].].",
"-.-.{ ` a p p p p p p p p p p p p i < * . $ 4 r x 7 7 4 # . * < i p p p p p p s X...~./.`.[.`.).^.(.",
"-.-.;. .| | | | | | | | | | | | { ] p , X = 7 v v v v 7 = X % p ] | | | | } | } } =.3.<.^.^.^.<.>.>.",
"-.-.;.-.-.-.-.-.-.-.-.-.-.-.-.*. .[ s q 2 5 t b c c c 7 4 @ q ( [ *.*.;.-.-.,.>.<.2.2.1.^.^.1.1.2.2.",
"-.-.-.-.-.-.-.-.-.-.-.-.-.-.*.[ ( s l j g h y K c c b y h f j l s _ [ *.,.2.(.(.).'.'.'.'.'.'.'.].'.",
"-.-.-.-.-.-.-.-.-.-.-.-.-.-.*._ u q j k A.p.Y m c c b P p.A.4.g q 0 _ *.,.1.`.[.-X,X>X>X2X>X>X2X>X>X",
"-.-.-.-.-.-.-.-.-.-.-.-.-.-.} a , @ g S.}.P.p.L Y L P a.K.I.L.f O , a } >.(.[.<X>X4X3X3X3X3X3X3X3X3X",
"-.-.-.-.-.-.-.-.-.-.-.-.-.-.} a , 2 g L.oX}.P.G.G.G.H.P.}..XL.g @ , a *.>.(.'.[.:X4X3X3X3X3X3X3X3X3X",
"-.-.-.-.-.-.-.-.-.-.-.-.-.-.} a , 2 k I.@X@XOX.X.X.X.XOX@X@XI.g 2 , a } >.(.).[.<X2X3X3X3X3X3X3X3X3X",
"-.-.-.-.-.-.-.-.-.-.-.-.-.-.} a , 2 k U.1X1X1X1X1X1X1X1X1X1XU.4.2 , ( } ,.1.(.].-X2X4X3X3X3X3X3X3X3X",
"-.-.-.-.-.-.-.-.-.-.-.-.-.-.} a , 2 k K.@X@X@X@X@X@X@X@X@X@XI.g @ , p } ,.>.1.(.].[.<X2X2X3X3X3X3X3X",
"-.-.-.-.-.-.-.-.-.-.-.-.-.-.} a % 2 g L.|. X|.|.|.|.|.|.|.|.L.g O , ( } -.,.>.2.(.).].[.2X3X3X3X3X3X",
"-.-.-.-.-.-.-.-.-.-.-.-.-.-.} a , @ f 4.{.{.{.{.{.{.{.{.{.{.A.f 2 , s } :.-.-.:.,.>.1.'.,X4X4X3X3X3X",
"-.-.-.-.-.-.-.-.-.-.-.-.-.-.} a % @ f A.{.{.{.{.{.{.{.{.{.{.A.g @ , ( { *.-.-.-.,.>.1.'.,X4X3X3X3X3X"
};
