/* XPM */
static char *_08e155156a64581c400725b30996f8eVjFI8KNHvBXBAGog[] = {
/* columns rows colors chars-per-pixel */
"50 50 186 2 ",
"   c #15182E",
".  c #181A2F",
"X  c #1C1E35",
"o  c #211E32",
"O  c #1F2331",
"+  c #1E223A",
"@  c #2A2A3A",
"#  c #262636",
"$  c #342A3B",
"%  c #382C3A",
"&  c #2D3235",
"*  c #2F343B",
"=  c #383B3C",
"-  c #313738",
";  c #472E3F",
":  c #47313E",
">  c #4B363F",
",  c #3D4239",
"<  c #43493A",
"1  c #575E3F",
"2  c #272C46",
"3  c #2A2F4A",
"4  c #2D2D46",
"5  c #302E43",
"6  c #2D3148",
"7  c #3A3443",
"8  c #343649",
"9  c #233C52",
"0  c #333855",
"q  c #363B59",
"w  c #3A3F5E",
"e  c #353953",
"r  c #483D47",
"t  c #493945",
"y  c #583A45",
"u  c #423E52",
"i  c #653C47",
"p  c #3E425F",
"a  c #36697E",
"s  c #474848",
"d  c #51444C",
"f  c #584B4D",
"g  c #574A48",
"h  c #585F40",
"j  c #5E554D",
"k  c #45455A",
"l  c #544857",
"z  c #6D464C",
"x  c #634246",
"c  c #7C4B4E",
"v  c #74464C",
"b  c #665948",
"n  c #654B56",
"m  c #794853",
"M  c #6A5459",
"N  c #775A5C",
"B  c #5A6141",
"V  c #606742",
"C  c #666E44",
"Z  c #6B6E46",
"A  c #6E6C4D",
"S  c #6D7546",
"D  c #737C47",
"F  c #72714D",
"G  c #7A7D49",
"H  c #706058",
"J  c #7B7156",
"K  c #454661",
"L  c #4D4B64",
"P  c #524D64",
"I  c #4D546B",
"U  c #555167",
"Y  c #5E576A",
"T  c #6B5861",
"R  c #645666",
"E  c #735A63",
"W  c #745A66",
"Q  c #54687E",
"!  c #776368",
"~  c #686675",
"^  c #776774",
"/  c #6F616D",
"(  c #864A55",
")  c #835A5E",
"_  c #8D5557",
"`  c #965A59",
"'  c #9A615E",
"]  c #83725D",
"[  c #A6615D",
"{  c #B3655F",
"}  c #945660",
"|  c #8A5965",
" . c #876A66",
".. c #9C6666",
"X. c #8A7363",
"o. c #95766C",
"O. c #816D75",
"+. c #8D767A",
"@. c #8A7C7F",
"#. c #9C7A71",
"$. c #957A7A",
"%. c #A96965",
"&. c #B6756D",
"*. c #A57C71",
"=. c #BB7C70",
"-. c #A0796F",
";. c #C16F66",
":. c #C37A6E",
">. c #7D824C",
",. c #7D864A",
"<. c #8A934E",
"1. c #87914C",
"2. c #929C4F",
"3. c #8D9350",
"4. c #8C924F",
"5. c #9AA451",
"6. c #9CA651",
"7. c #A1AB53",
"8. c #A7B154",
"9. c #AAB555",
"0. c #AFBA56",
"q. c #B2BD57",
"w. c #B4BF58",
"e. c #9C807F",
"r. c #AB8375",
"t. c #AE897E",
"y. c #A6827A",
"u. c #BA887A",
"i. c #CD8172",
"p. c #C78A7D",
"a. c #D58C7B",
"s. c #D5917F",
"d. c #B6C158",
"f. c #B9C559",
"g. c #BECA5A",
"h. c #C1CD5B",
"j. c #C8D45D",
"k. c #C5D15C",
"l. c #55738B",
"z. c #787482",
"x. c #897E8A",
"c. c #4D889E",
"v. c #628096",
"b. c #4996AA",
"n. c #6999AD",
"m. c #6FB1C3",
"M. c #88818B",
"N. c #9B8285",
"B. c #818293",
"V. c #AB878B",
"C. c #B38E84",
"Z. c #BB9284",
"A. c #B18A91",
"S. c #8FA4B3",
"D. c #B3AEB8",
"F. c #C89886",
"G. c #D59884",
"H. c #E29B86",
"J. c #DDA18A",
"K. c #D3A38D",
"L. c #CDA090",
"P. c #D3A493",
"I. c #DCAA93",
"U. c #D9AF9C",
"Y. c #EBA88E",
"T. c #E8AC93",
"R. c #E7B195",
"E. c #E8B196",
"W. c #ECB59B",
"Q. c #F4B99C",
"!. c #FABC9D",
"~. c #F3B396",
"^. c #D5B7AE",
"/. c #C7B4BD",
"(. c #CAB8BC",
"). c #D0B7B0",
"_. c #EABDAC",
"`. c #FFC2A1",
"'. c #F8C9B1",
"]. c #C8BFC3",
"[. c #9DC4D2",
"{. c #EED2C7",
"}. c #E3DCDE",
"|. c #CBD8E1",
" X c #DFE0E8",
".X c #C8C0C3",
/* pixels */
"j.j.j.j.j.j.j.j.j.j.j.j.j.j.j.j.j.j.j.j.j.j.j.j.j.j.j.j.j.j.j.j.j.j.j.j.j.j.j.j.j.j.j.j.j.j.j.j.j.j.",
"j.j.j.j.j.j.j.j.j.j.j.j.j.j.j.j.j.j.j.j.j.k.j.j.j.j.j.k.j.j.j.j.j.j.j.j.j.j.j.j.j.j.j.j.j.j.j.j.j.j.",
"j.j.j.j.j.j.j.j.j.j.j.j.j.j.g.0.6.2.2.2.2.2.2.2.2.2.2.2.2.2.2.2.2.6.0.g.j.j.j.j.j.j.j.j.j.j.j.j.j.j.",
"j.j.j.j.j.j.j.j.j.j.j.j.j.j.f.2.D B B B B 1 B B B B 1 B B 1 B B B D 2.d.j.j.j.j.j.j.j.j.j.j.j.j.j.j.",
"j.j.j.j.j.j.j.j.j.j.j.j.j.j.d.,.< O O O O O O O O O O O O O O O O , ,.d.j.k.j.j.j.j.j.j.j.j.j.j.j.j.",
"j.j.j.j.j.j.j.j.j.j.j.g.0.7.1.B , + + + + + + + + + + + + + + + + , C 1.7.d.g.j.j.j.j.j.j.j.j.j.j.j.",
"j.j.j.j.j.j.j.j.j.j.k.d.2.>.B s 8 3 3 3 3 3 3 3 3 3 3 3 3 3 3 3 6 8 p B >.2.d.j.j.j.j.j.j.j.j.j.j.j.",
"j.j.j.j.j.j.j.j.j.j.j.9.,., @ 6 0 q q q q q q q q q q q q q q q 0 9 , # , >.9.k.j.j.j.j.j.j.j.j.j.j.",
"j.j.j.j.j.j.j.j.g.w.8.<.B , 2 3 q w w w w w w w p p w w w w w w w 0 3 + 8 B 1.8.d.g.j.j.j.j.j.j.j.j.",
"j.j.j.j.j.j.j.j.w.2.D B s 8 3 9 q w w w w w w w p q w w w w w w w q 0 2 p s B ,.2.d.j.j.j.j.j.j.j.j.",
"j.j.j.j.j.j.j.j.8.D < * 6 0 q w p q w w w w w w q w w w w w w w w w q 0 8 8 - , D 8.j.j.j.j.j.j.j.j.",
"j.j.j.j.j.j.j.j.7.C & + 2 0 w w w w w w w w w w w w w w w w w w w w p w 8 2 O & C 6.j.j.j.j.j.j.j.j.",
"j.j.j.j.j.j.j.j.7.C & X 2 0 w w w w w w w w w w w w w w w w w w w w w w 0 2 O & C 6.j.j.j.j.j.j.j.j.",
"j.j.j.j.j.j.j.j.7.C & X 2 0 w p w w w w w w w w w w w w w w w w w p w w 0 2 X & C 8.j.j.j.j.j.j.j.j.",
"j.j.j.j.j.j.j.j.7.C - + 2 0 p K L U L p w w w w w w w w w w p L U U K p 0 2 + & C 6.j.j.j.j.j.j.j.j.",
"j.j.j.j.j.j.j.j.6.C & X 2 0 K R O.+./ I w w w w w w w w w w P ~ x.^ R p 0 2 + - C 8.j.j.j.j.j.j.j.j.",
"j.j.j.j.j.j.j.j.7.C * X 4 0 P O.C.L.@.R p p w w w w p w w w Y $.L.C.^ L 0 2 + & B 6.j.j.j.j.j.j.j.j.",
"j.j.j.j.j.j.j.j.7.C * X 2 e U $.P.W.Z.^ L L L L L L L L L L ^ A.W.P.N.U 0 2 X & C 8.j.j.j.j.j.j.j.j.",
"j.j.j.j.j.j.j.j.7.C & X 2 0 P $.P.Q.L.V.+.+.+.+.+.+.+.+.+.@.C.P.Q.P.$.U 0 2 + & C 6.j.j.j.j.j.j.j.j.",
"j.j.j.j.j.j.j.j.7.C @ X 2 0 R x.P.!.W.U.L.L.L.L.L.L.L.L.L.L.I.W.`.P.$.U 0 2 + & C 8.j.j.j.j.j.j.j.j.",
"j.j.j.j.j.k.h.g.5.S = # 6 q U +.L.Q.Q.Q.Q.Q.!.`.`.`.`.`.Q.Q.Q.Q.Q.L.+.U p 3 # = S 6.g.k.k.j.j.j.j.j.",
"j.j.j.j.j.d.7.<.] F H M l K L / $.t.t.t.t.L.R.`.`.`.`.E.L.t.t.t.t.$./ k p l M H J >.<.7.d.j.j.j.j.j.",
"j.j.j.j.j.8.,.h V ] r.e. .P u P R M T T ! y.K.`.`.`.`.K.*.! M T M R l p L ^ y.r.] b h ,.9.j.j.j.j.j.",
"j.j.j.j.j.5.V # r o.I.I.x.Y w e 6 4 6 2 8 ! F.!.`.`.`.Z.! 8 2 6 6 6 0 p Y e.I.I.o.s # B 5.j.j.j.j.j.",
"j.j.j.j.j.5.V # r o.I.I.x.R u U T T d 8 6 ! Z.`.`.`.`.Z.! 5 8 l T T P k Y x.I.I.o.< O V 5.j.j.j.j.j.",
"j.j.j.j.j.5.V # r o.I.I.N.R P ^ $.y.W r @ H Z.`.`.`.`.Z.H @ r E y.$.^ L R y.I.I.o.> & V 5.j.j.j.j.j.",
"j.j.j.j.k.5.V & r o.I.I.$.Y U *.P.R.#.d # M u.`.`.`.`.u.M # d #.T.L.$.U Y V.I.I.o.t & V 5.k.j.j.j.j.",
"j.j.j.j.j.9.,.1 V ] r.r.o.W W x.I.R.#.d # n =.Y.Y.Y.Y.*.n # d #.E.I.t.W E  .y.r.X.b 1 ,.8.j.j.j.j.j.",
"j.j.j.j.j.d.7.<.] G N N N ) ..p.T.R.#.d # g %.a.a.a.a...g o d #.R.T.u...) N N H F G 3.7.d.j.j.j.j.j.",
"j.j.j.j.j.k.g.g.5.Z - % v ` :.a.T.E.#.d O > _ { ;.;.;._ y . d #.R.~.s.:.` z % = Z 5.g.h.k.j.j.j.j.j.",
"j.j.j.j.j.j.j.j.7.C - o y v ' u.s.J.r.N g N %.i.i.i.i.%.) f N r.J.G.:.` ( > # @ C 7.j.j.j.j.j.j.j.j.",
"j.j.j.j.j.j.j.j.7.Z & o % > z ' :.a.p.r.y.u.s.H.H.Y.H.s.u.*.*.p.a.=.' v > % # & Z 7.j.j.j.j.j.j.j.j.",
"j.j.j.j.j.j.j.j.7.C &   X X % v [ :.G.H.T.W.!.!.!.!.!.Q.W.W.H.a.:.} i t o . . & C 7.j.j.j.j.j.j.j.j.",
"j.j.j.j.j.g.q.7.<.F g r s p l M } { &.G.T.W._._._.'.'._.W.T.G.:.{ } m l p s r g F <.8.0.g.j.j.j.j.j.",
"j.j.j.j.j.0.2.S F ] X.$.x.M.x.^ | ( [ %.F.T._.{.{.{.{._.T.a.&.} ( | z.x.M.@.+.o.] F D 2.0.j.j.j.j.j.",
"j.j.j.j.j.7.S = g X.F.U.)..XD.N.W i m } [ x./.}.}.}.}./.x.[ } ( i W x.D..X).U.F.X.g , S 6.j.j.j.j.j.",
"j.j.g.d.8.<.Z s n #.K.W.^./.D.x.W i i ( } F./. X X X X/.x.{ ( i i E x.D./.^.W.G.-.M s Z <.9.d.g.j.j.",
"j.j.0.2.D D J X.o.u.s.G.C.M.z.! ( i ( ( } x./. X X X X/.x.} ( ( i m / z.x.V.F.s.u.o.X.J F >.2.9.j.j.",
"j.j.6.S , j o.F.G.s.i.%.) l u d i ( ( } } x./. X X X X/.A.} } ( ( m i u l ) %.i.a.F.F.X.j , S 5.j.j.",
"j.j.2.B O d #.R.~.G.i.[ z $ o ; i ( ( } %.x.D.|.|.|.|.D.x.{ } ( ( i t X $ v [ i.H.~.R.#.d O B 2.j.j.",
"j.j.2.h O d #.E.!.Y.G.=.N % o $ ; i i R ^ x.S.[.[.[.[.S.x.^ n n y ; $ o % N u.s.Y.~.E.#.d O h 2.j.j.",
"j.j.2.1 O d #.E.!.~.~.p.) =   o o % u I l.l.n.m.m.m.m.n.l.Q I p $ o o   = ) s.E.!.!.E.-.d O h 2.j.j.",
"j.j.5.V - g #.K.E.E.E.F. .%   . o @ p I l.l.c.b.b.b.b.c.l.l.I e $ o .   =  .F.R.E.T.K.o.g - C 5.j.j.",
"j.j.8.1.C F ] o.-.#.#. .f @ o % > g n W ^ ~ l.a a a a l.~ z.! n i ; $ X $ d  .#.#.#.o.] F C 1.8.j.j.",
"j.j.g.9.6.1.A g d d g t $ X # > v ` ` ....N s 9 9 9 9 k N ....` _ v > o # @ r d d d f A 1.6.9.f.j.j.",
"j.j.j.j.j.6.C - O O O o X O % i _ { { { [ c t O X O O > ( [ { { { ` i % O O O O O O - C 5.k.j.j.j.j.",
"j.j.j.j.j.9.1.C 1 B h h h 1 1 b c c c c c b b 1 h 1 h b b c c c ( ( b B h h h h h h C 1.0.j.j.j.j.j.",
"j.j.j.j.j.f.8.5.2.2.2.2.2.2.4.Z g : : ; t b >.2.2.2.2.G b > : : ; < Z 4.2.2.2.2.2.2.5.8.f.j.j.j.j.j.",
"j.j.j.j.j.j.j.j.j.j.j.j.j.j.0.D ,       O h 2.j.j.j.j.2.h O       = D q.j.j.j.j.j.j.j.j.j.j.j.j.j.j.",
"j.j.j.j.j.j.j.j.j.j.j.j.j.j.q.D =       O 1 2.j.j.j.j.2.1 O       < D 9.j.j.j.j.j.j.j.j.j.j.j.j.j.j."
};
