/* XPM */
static char *_cfec8f2480246d38dc2edd580b60e258k2vCSG3CRWgtEOU[] = {
/* columns rows colors chars-per-pixel */
"50 50 193 2 ",
"   c #14182E",
".  c #181A2F",
"X  c #1C1E35",
"o  c #221F33",
"O  c #1F2331",
"+  c #1D2139",
"@  c #232134",
"#  c #262B33",
"$  c #2B2737",
"%  c #36293A",
"&  c #2D3235",
"*  c #2E3339",
"=  c #37393C",
"-  c #442F3E",
";  c #47313E",
":  c #4B323F",
">  c #454B3B",
",  c #4A503C",
"<  c #50573E",
"1  c #272C46",
"2  c #2E2E47",
"3  c #292D48",
"4  c #312F44",
"5  c #353A46",
"6  c #393647",
"7  c #343955",
"8  c #3A3F5E",
"9  c #343856",
"0  c #483D47",
"q  c #453743",
"w  c #583A45",
"e  c #453F54",
"r  c #613C45",
"t  c #6A3D4B",
"y  c #264257",
"u  c #3D415F",
"i  c #3F4260",
"p  c #4D4449",
"a  c #51444C",
"s  c #5A484C",
"d  c #4A5146",
"f  c #5A5A45",
"g  c #484559",
"h  c #5C4C52",
"j  c #584A5A",
"k  c #6C454B",
"l  c #71424B",
"z  c #79494E",
"x  c #674A56",
"c  c #774B55",
"v  c #675556",
"b  c #785A5B",
"n  c #61594D",
"m  c #5D6442",
"M  c #606742",
"N  c #666D44",
"B  c #6B6C4A",
"V  c #676948",
"C  c #777F48",
"Z  c #75794B",
"A  c #756956",
"S  c #7A7155",
"D  c #6F704B",
"F  c #464762",
"G  c #4C4B64",
"H  c #534D62",
"J  c #555167",
"K  c #5D576A",
"L  c #535268",
"P  c #45556E",
"I  c #60586B",
"U  c #6A5865",
"Y  c #735E63",
"T  c #745964",
"R  c #765F71",
"E  c #5F697D",
"W  c #786469",
"Q  c #786874",
"!  c #804C4F",
"~  c #854954",
"^  c #874B56",
"/  c #8B5658",
"(  c #985857",
")  c #92595B",
"_  c #985B5A",
"`  c #81625F",
"'  c #85735F",
"]  c #A4645F",
"[  c #B3655F",
"{  c #885962",
"}  c #945660",
"|  c #866965",
" . c #986766",
".. c #8A7367",
"X. c #94746C",
"o. c #9A786E",
"O. c #806770",
"+. c #857177",
"@. c #8C7578",
"#. c #9C7B71",
"$. c #967B7C",
"%. c #A46866",
"&. c #BD6A62",
"*. c #B06861",
"=. c #B6756C",
"-. c #A77E74",
";. c #B67971",
":. c #C6766A",
">. c #CC7D70",
",. c #7A8349",
"<. c #838A4D",
"1. c #8E984F",
"2. c #929C4F",
"3. c #8F9650",
"4. c #959F50",
"5. c #909751",
"6. c #97A150",
"7. c #99A351",
"8. c #9FA852",
"9. c #A1AC53",
"0. c #A7B154",
"q. c #AAB555",
"w. c #AFBA57",
"e. c #B1BC57",
"r. c #B4BF58",
"t. c #9C807F",
"y. c #A48174",
"u. c #A9847C",
"i. c #B68879",
"p. c #C28072",
"a. c #CA8979",
"s. c #D68E7C",
"d. c #D4917F",
"f. c #C7917F",
"g. c #B6C158",
"h. c #B8C459",
"j. c #BEC95A",
"k. c #C1CD5B",
"l. c #C8D45D",
"z. c #C6D25C",
"x. c #396F83",
"c. c #4F7189",
"v. c #7D7885",
"b. c #668096",
"n. c #4B9BB0",
"m. c #4E8CA2",
"M. c #6D9BAE",
"N. c #74B4C4",
"B. c #978287",
"V. c #8C8591",
"C. c #AA868B",
"Z. c #B68F83",
"A. c #B18F8B",
"S. c #BC9382",
"D. c #BD968B",
"F. c #BC9092",
"G. c #94A6B4",
"H. c #BAB3BB",
"J. c #AFAAB5",
"K. c #C69A8A",
"L. c #DA9B86",
"P. c #DC9683",
"I. c #C98C80",
"U. c #E19A84",
"Y. c #D8A58E",
"T. c #CCA090",
"R. c #D3A492",
"E. c #DCAA93",
"W. c #D2A697",
"Q. c #E5A58C",
"!. c #E4AC93",
"~. c #EEAD93",
"^. c #F0AE93",
"/. c #E7B195",
"(. c #EAB196",
"). c #E9B499",
"_. c #F5B699",
"`. c #F2B99B",
"'. c #FBBF9F",
"]. c #F2B195",
"[. c #C7B4BD",
"{. c #D7BAB6",
"}. c #C8B0AA",
"|. c #E8BAA9",
" X c #F5BFA6",
".X c #FFC2A1",
"XX c #F9C7AE",
"oX c #A2C7D4",
"OX c #CCC1C4",
"+X c #EFD1C5",
"@X c #E5DBDB",
"#X c #D0DAE3",
"$X c #DFE0E8",
/* pixels */
"l.l.l.l.l.l.l.l.l.l.l.l.l.l.l.l.l.l.l.l.l.l.l.l.l.l.l.l.l.l.l.l.l.l.l.l.l.l.l.l.l.l.l.l.l.l.l.l.l.l.",
"l.l.l.l.l.l.l.l.l.l.l.l.l.l.l.l.l.l.l.l.l.l.l.l.l.l.l.l.l.l.l.l.l.l.l.l.l.l.l.l.l.l.l.l.l.l.l.l.l.l.",
"l.l.l.l.l.l.l.l.l.l.l.l.l.l.l.l.l.l.l.l.l.l.l.l.l.l.l.l.l.l.l.l.l.l.l.l.l.l.l.l.l.l.l.l.l.l.l.l.l.l.",
"l.l.l.l.l.l.l.l.l.l.l.l.l.l.l.l.l.l.l.l.l.l.l.l.l.l.l.l.l.l.l.l.l.l.l.l.l.l.l.l.l.l.l.l.l.l.l.l.l.l.",
"l.l.l.l.l.l.l.l.l.l.l.l.l.l.z.z.l.l.l.l.l.l.l.l.l.l.l.l.l.l.l.l.l.l.l.l.l.l.l.l.l.l.l.l.l.l.l.l.l.l.",
"l.l.l.l.l.l.l.l.l.l.l.l.l.l.k.g.9.7.7.8.7.7.7.8.7.7.7.8.7.7.7.7.6.0.g.j.l.l.l.l.l.l.l.l.l.l.l.l.l.l.",
"l.l.l.l.l.l.l.l.l.l.l.l.l.l.j.7.,.m m m m m m m M M m m N m m m m ,.6.h.l.l.l.l.l.l.l.l.l.l.l.l.l.l.",
"l.l.l.l.l.l.l.l.l.l.l.l.l.l.g.,.d # # # # # & # # # # # # # # # # , ,.g.l.l.l.l.l.l.l.l.l.l.l.l.l.l.",
"l.l.l.l.l.l.l.l.l.l.l.k.g.0.1.m y + + + + + + + + + + + + + + + + = N 1.0.g.j.l.l.l.l.l.l.l.l.l.l.l.",
"l.l.l.l.l.l.l.l.l.l.l.g.7.,.m d 6 3 3 3 3 3 3 3 3 3 1 1 1 3 3 1 3 5 d m ,.6.g.l.l.l.l.l.l.l.l.l.l.l.",
"l.l.l.l.l.l.l.l.l.l.l.q.,., * 4 5 7 9 9 9 9 9 9 7 7 7 7 7 7 7 7 7 7 5 * d ,.q.l.l.l.l.l.l.l.l.l.l.l.",
"l.l.l.l.l.l.l.l.k.h.q.1.m = + 1 7 u 8 8 8 i 8 8 u u u u i u i i 8 9 3 @ = m 1.w.h.j.l.l.l.l.l.l.l.l.",
"l.l.l.l.l.l.l.l.g.6.,.M d 5 3 7 8 8 8 8 8 8 8 8 8 8 8 8 y 8 8 8 8 7 9 3 5 d m ,.7.g.l.l.l.l.l.l.l.l.",
"l.l.l.l.l.l.l.l.0.,.> = 5 7 7 7 7 u 8 8 8 8 8 8 8 8 8 8 8 8 8 8 8 8 7 9 7 5 = , ,.0.l.l.l.l.l.l.l.l.",
"l.l.l.l.l.l.l.l.8.N & + 1 7 u 8 8 8 8 8 8 8 8 i 8 8 8 8 8 8 8 8 8 8 u u 7 1 + & N 9.l.l.l.l.l.l.l.l.",
"l.l.l.l.l.l.l.l.9.N & + 1 7 u 8 8 8 8 8 8 8 8 8 8 8 8 8 8 8 8 8 8 8 y u 7 1 + & N 8.l.l.l.l.l.l.l.l.",
"l.l.l.l.l.l.l.l.9.N * X 1 7 8 i 8 8 8 8 8 8 8 8 8 8 8 8 8 u 8 8 u u u u 7 1 X & N 8.l.l.l.l.l.l.l.l.",
"l.l.l.l.l.l.l.l.9.m & X 1 7 i F G G F i 8 8 8 8 8 8 8 8 8 8 i i G G u u 7 1 X & N 8.l.l.l.l.l.l.l.l.",
"l.l.l.l.l.l.l.l.9.N & X 1 7 F I Q +.I L u 8 u u 8 8 8 8 u i G I +.Q K F 7 1 X & N 9.l.l.l.l.l.l.l.l.",
"l.l.l.l.l.l.l.l.9.N & X 1 7 G Q C.K.@.I u u 7 u 8 8 8 8 u i K $.D.A.Q G 7 1 X & N 8.l.l.l.l.l.l.l.l.",
"l.l.l.l.l.l.l.l.9.N * + 1 7 L $.R.`.A.W i F P F F F g P i G Q A.).R.t.L 7 1 + & N 0.l.l.l.l.l.l.l.l.",
"l.l.l.l.l.l.l.l.9.N & + 1 7 J $.R.`.T.C.+.+.@.Q +.+.+.+.Q +.C.T.`.R.$.L 7 1 + & N 9.l.l.l.l.l.l.l.l.",
"l.l.l.l.l.l.l.z.9.N & + 1 7 L $.R.'.).R.K.D.K.K.K.K.K.D.K.K.T./.'.R.$.L 7 1 + & N 9.l.l.l.l.l.l.l.l.",
"l.l.l.l.l.z.z.z.8.N & + 3 7 L $.R.'.'.'..X.X.X.X.XXX.X.X.X'.'.'.'.R.@.H 7 1 + = N 9.z.z.l.l.l.l.l.l.",
"l.l.l.l.l.h.0.2.,.A v h j u G W $.S.Z.Z.S.T.)..X.X.X.X).R.S.Z.Z.Z.$.W F g g h v Z ' 2.0.h.l.l.l.l.l.",
"l.l.l.l.l.q.<.m V ..y.t.W g g J U Y Y Y W u.R..X.X.X.XY.u.W b W Y U H g G Q #.y.' V m <.q.l.l.l.l.l.",
"l.l.l.l.z.7.M & p ..E.E.t.K u 7 9 2 2 2 6 | K..X.X.X.XS.W 6 3 2 2 7 7 8 K $.E.Y.X.: & M 7.l.l.l.l.l.",
"l.l.l.l.l.7.M # 0 X.E.E.t.K u g K x a 4 4 W S..X.X.X.XS.W 2 5 a v j j u K B.E.!.X.> # M 4.l.l.l.l.l.",
"l.l.l.l.l.7.M # 0 X.E.E.t.K G Y o.-.U 0 $ W S..X.X.X.XS.Y $ 0 U -.$.R F K u.E.E.X.0 # M 7.l.l.l.l.l.",
"l.l.l.l.l.7.M # 0 X.E.E.t.K L @.K.E.X.a @ v i..X.X.X.Xi.b @ a X.!.K.@.L K B.E.!.X.0 # M 7.l.l.l.l.l.",
"l.l.l.l.z.0.,.< n ..i.i.@.U T C.E./.#.a @ v i.].~.~.^.;.v @ a #.(.E.C.T U X.i.i.' n < ,.0.l.l.l.l.l.",
"l.l.l.l.l.g.8.<.Z S A Y T /  .Z.!./.#.a . k  .s.s.s.s. .s O a #.!.!.i. .{ Y T A S Z <.8.r.l.l.l.l.l.",
"l.l.l.l.l.k.j.h.6.B ; ; k _ =.s.^.(.#.a o w / :.:.:.:./ : @ s #.~.~.d.=._ z ; ; N 8.h.j.z.l.l.l.l.l.",
"l.l.l.l.l.l.l.l.9.N & $ p ! ] p.L.Q.y.b 0 b %.>.>.>.>.] b a b -.Q.P.p.] ! : $ & N 9.l.l.l.l.l.l.l.l.",
"l.l.l.l.l.l.l.l.9.N & @ - : z  .:.I.i.-.o.i.a.P.Q.d.d.d.y.o.-.i.s.p. .z : - O & N 8.l.l.l.l.l.l.l.l.",
"l.l.l.l.l.l.l.l.9.N & . o @ = z %.>.a.L.!.~.(._._._._.]./.!.P.s.>.] z % @ o . & N 0.l.l.l.l.l.l.l.l.",
"l.l.l.l.l.j.g.q.3.D d 5 q 5 g x } *.:.P.~. X XXX.XXXXXXX`.!.P.p.[ / x a 9 6 5 d D 3.q.g.j.z.l.l.l.l.",
"l.l.l.l.l.g.2.,.Z ' ' @.+.v.+.O.} ^ %.;.I.W.|.+X+X+X+X|.W.I.;.%./ / W v.v.+.+...S Z C 2.g.z.l.l.l.l.",
"l.l.l.l.l.8.C > s ..i.W.}.H.J.V.T t c } %.K.[.@X@X@X@X{.F.%.} ^ k T B.J.[.}.W.i...s > C 9.z.l.l.l.l.",
"l.l.j.h.e.1.N = n o.Y. X{.OXH.B.U t t ~ } C.[.$X$X$X$X[.C.} ~ t w b V.H.OX{..XY.o.n 5 N 1.g.h.j.l.l.",
"l.l.q.2.,.Z S '  .i.s.K.Z.B.v.Q c t ~ ^ } C.[.$X$X$X$X[.C.} ~ z t c W v.V.Z.P.s.i. .S S S ,.6.e.l.l.",
"l.z.8.Z > n X.i.I.a.a.=.| j e h t ~ ^ ^ } C.[.$X$X$X$X[.C.} ^ ~ ~ c x g x ` =.p.f.I.f...n > Z 8.l.l.",
"l.l.2.m @ a #.(.].d.a.] t % o q t ~ ^ ^ } C.H.#X#X#X#XH.C.} ^ ^ ~ t ; o % k ] a.U.].(.#.p O m 1.l.l.",
"l.l.1.m O a #.(._.~.s.:.c % o % q w x U R V.G.oXoXoXoXG.V.R U k w q % X % b ;.d.Q._.(.#.p O m 2.l.l.",
"l.l.2.m O a #.(.'._.^.f.| 6 . o $ % e L c.b.M.N.N.N.N.M.b.c.J g 4 % o   % | f.^._._.).#.a O m 2.l.l.",
"l.l.2.m # a #.Y.`.`.].K.| % . . X $ 7 P c.c.m.n.n.n.n.m.c.c.P 7 o o .   6 | K._.`.`.E.X.s # m 2.l.l.",
"l.l.0.<.M A ' #.y.y.y...h % o $ ; w x U Q E c.x.x.x.x.c.E Q U v r : % . * h ..y.y.y.#.' B m <.0.l.l.",
"l.l.h.0.4.<.D n h h h a % o @ : k / }  . .U F y y y 7 F U  . ._ ^ t q o @ % p h h h n A <.6.0.h.l.l.",
"l.l.l.l.l.7.M #             $ r ( [ &.&.[ ! ; .       ; z [ &.&.&.( r $             @ M 7.l.l.l.l.l.",
"l.l.l.l.l.7.M #             O k ( &.&.&.[ ! ;     .   ; z [ &.&.&.( t $             # M 7.l.l.l.l.l."
};
