/* XPM */
static char *_72d4f418386480ecdc988f5c0c73370tbU4oYZS7q1GlMya[] = {
/* columns rows colors chars-per-pixel */
"50 50 191 2 ",
"   c #14182E",
".  c #181A2F",
"X  c #1C1E34",
"o  c #221E32",
"O  c #1F2331",
"+  c #1F243C",
"@  c #232334",
"#  c #262B33",
"$  c #2B2B3A",
"%  c #282638",
"&  c #352939",
"*  c #372A39",
"=  c #2D3235",
"-  c #363C37",
";  c #37393C",
":  c #472E3F",
">  c #47313E",
",  c #4B343F",
"<  c #3C4238",
"1  c #535A3E",
"2  c #272C46",
"3  c #2D2E43",
"4  c #2B2F4B",
"5  c #2C304C",
"6  c #2E3346",
"7  c #3B3441",
"8  c #34334A",
"9  c #373848",
"0  c #233C52",
"q  c #333855",
"w  c #3A3F5E",
"e  c #363A56",
"r  c #302D42",
"t  c #4D3440",
"y  c #483D47",
"u  c #433847",
"i  c #593642",
"p  c #593A46",
"a  c #413E54",
"s  c #6C3E4A",
"d  c #643B46",
"f  c #3F4260",
"g  c #36697E",
"h  c #474548",
"j  c #51444C",
"k  c #514848",
"l  c #5A4448",
"z  c #5A5E41",
"x  c #595649",
"c  c #47475C",
"v  c #574D5C",
"b  c #68444A",
"n  c #75444C",
"m  c #7C4B4E",
"M  c #754F4B",
"N  c #685746",
"B  c #654C56",
"V  c #7E4651",
"C  c #68565A",
"Z  c #7A5659",
"A  c #72585D",
"S  c #5A6242",
"D  c #606742",
"F  c #676E44",
"G  c #6B6B49",
"H  c #6B7345",
"J  c #747C47",
"K  c #72704E",
"L  c #7B7D4C",
"P  c #79635D",
"I  c #787153",
"U  c #4B4A64",
"Y  c #434561",
"T  c #524F66",
"R  c #4D546B",
"E  c #565167",
"W  c #5D566A",
"Q  c #585165",
"!  c #695967",
"~  c #735A63",
"^  c #785E69",
"/  c #54687E",
"(  c #7A6364",
")  c #676A7A",
"_  c #746471",
"`  c #7B6A74",
"'  c #854B54",
"]  c #874B56",
"[  c #89565A",
"{  c #9C5C5B",
"}  c #93575B",
"|  c #81725C",
" . c #90615F",
".. c #A9625D",
"X. c #B3655F",
"o. c #945660",
"O. c #8A5965",
"+. c #856665",
"@. c #9A6665",
"#. c #8F7368",
"$. c #877262",
"%. c #93756B",
"&. c #846F77",
"*. c #897377",
"=. c #9C7B72",
"-. c #957B7D",
";. c #9A7E7C",
":. c #A76765",
">. c #BC6C64",
",. c #AD746C",
"<. c #BA796E",
"1. c #A47973",
"2. c #B77973",
"3. c #C5756A",
"4. c #C57F73",
"5. c #7B8349",
"6. c #838B4C",
"7. c #8C954D",
"8. c #919B4F",
"9. c #898E50",
"0. c #9AA451",
"q. c #9EA852",
"w. c #97A052",
"e. c #A1AC53",
"r. c #AAB555",
"t. c #AEB956",
"y. c #A5B054",
"u. c #B4BF58",
"i. c #B1BB57",
"p. c #9C807F",
"a. c #A9847A",
"s. c #B7897A",
"d. c #BA907F",
"f. c #C4877A",
"g. c #D28C7B",
"h. c #D48878",
"j. c #DA927F",
"k. c #BAC55A",
"l. c #BDC95A",
"z. c #B4C058",
"x. c #C8D45D",
"c. c #C6D25C",
"v. c #C3CF5C",
"b. c #55738B",
"n. c #857984",
"m. c #AC7F87",
"M. c #4D889E",
"N. c #628096",
"B. c #4996AA",
"V. c #6999AD",
"C. c #6FB1C3",
"Z. c #998282",
"A. c #878693",
"S. c #908691",
"D. c #AA848B",
"F. c #BB9385",
"G. c #B28C8C",
"H. c #8FA4B3",
"J. c #B3ACB5",
"K. c #C68780",
"L. c #CB9D88",
"P. c #C79887",
"I. c #D39481",
"U. c #DA9F89",
"Y. c #E39C86",
"T. c #D5A48E",
"R. c #D4A592",
"E. c #DDAA93",
"W. c #CCA08F",
"Q. c #E5A38C",
"!. c #E9A48C",
"~. c #EDAA91",
"^. c #E6AD94",
"/. c #E7B195",
"(. c #E8B196",
"). c #EBB499",
"_. c #E5B09B",
"`. c #FABC9D",
"'. c #F4B79A",
"]. c #F0AE93",
"[. c #CBA9AC",
"{. c #C7B4BD",
"}. c #D5B8AF",
"|. c #EFBBA1",
" X c #FFC2A1",
".X c #BBB8C1",
"XX c #9DC4D2",
"oX c #DAD0D5",
"OX c #D0C7CA",
"+X c #CBD8E1",
"@X c #DFE0E8",
/* pixels */
"x.x.x.x.x.x.x.x.x.x.x.x.x.x.t.5.<                                 < 5.t.c.c.x.x.x.x.x.x.x.x.x.x.x.x.",
"x.x.x.x.x.x.x.x.x.x.x.x.x.x.r.5.<                                 < J t.x.x.x.x.x.x.x.x.x.x.x.x.x.x.",
"x.x.x.x.x.x.x.x.x.x.x.l.t.0.6.S 9 + + + + + + + + + + + + + + + $ < S 5.0.t.l.x.x.x.x.x.x.x.x.x.x.x.",
"x.x.x.x.x.x.x.x.x.x.x.z.8.H z h 9 4 4 4 4 4 4 2 4 4 4 5 4 4 4 4 0 9 h 1 H 8.z.x.x.x.x.x.x.x.x.x.x.x.",
"x.x.x.x.x.x.x.x.c.x.x.r.5.< + 2 0 w w w w w w w q w w w w w w w w 5 6 + < 5.r.x.x.x.x.x.x.x.x.x.x.x.",
"x.x.x.x.x.x.x.x.l.t.q.6.S 9 + 4 q w w w w w w w w w w w w w w w w q 4 + 9 S 5.q.i.l.x.x.x.x.x.x.x.x.",
"x.x.x.x.x.x.x.x.i.8.H z h 9 5 q e w w w w w w w w w w w w w w w w w q 6 9 h S H 8.i.c.x.x.x.x.x.x.x.",
"x.x.x.x.x.x.x.x.y.J < = 6 0 q w w w f w w w w w w w w w w w w w w w w e q 0 # < J e.x.x.x.x.x.x.x.x.",
"x.x.x.x.x.x.x.x.e.F = + 2 q w w w w w w w w f w w w w w w w w w w w w w q 2 + # F e.x.x.x.x.x.x.x.x.",
"x.x.x.x.x.x.x.x.q.F = X 2 q w w f w w f w w w w w w w f w f w w w w w w q 2 + = F e.x.x.x.x.x.x.x.x.",
"x.x.x.x.x.x.x.x.q.F = X 2 q f f w w f w f w w w w w w w w f w f f f w f q 2 X = F e.x.x.x.x.x.x.x.x.",
"x.x.x.x.x.x.x.x.q.F = X 2 q f U E R U f w w w f w f w w w f f Y E T U f q 2 X $ F e.x.x.x.x.x.x.x.x.",
"x.x.x.x.x.x.x.x.e.F = X 2 q Y ! &.-._ R w w w w w w w w f w R _ -.&._ U q 2 X = F e.x.x.x.x.x.x.x.x.",
"x.x.x.x.x.x.x.x.q.F = X 2 q T &.F.W.n.! w w w w w w w w w w W -.W.F.` T q 2 X = F e.x.x.x.x.x.x.x.x.",
"x.x.x.x.x.x.x.x.y.F = + 2 q R -.R.).F.&.E E E E E E E E E R ` F.).R.n.T q 2 + = F e.x.x.x.x.x.x.x.x.",
"x.x.x.x.x.x.x.x.q.F = + 2 q E -.R.'.R.F.-.-.;.-.-.;.-.-.-.p.G.R.`.R.;.T q 2 + = F e.x.x.x.x.x.x.x.x.",
"x.x.x.x.c.c.x.x.q.F = O 2 q E ;.R. X).E.R.R.R.R.R.R.R.R.R.R.E.). XR.-.E q 2 O = F q.x.x.c.x.x.x.x.x.",
"x.x.x.x.x.v.v.z.w.G < 3 8 e E *.W._.).).).'.`. X X X X X'.).).).).P.*.U e 8 3 7 H w.k.l.c.x.x.x.x.x.",
"x.x.x.x.x.u.q.6.5.I P C Q c Y ! *.a.a.a.a.L./. X X X X/.L.a.a.a.a.*.! U Y Q A I I L 6.0.z.x.x.x.x.x.",
"x.x.x.x.x.e.5.1 x $.s.a.` E c c Q v C Q ~ =.W. X X X XW.=.! C Q C Q c f E ` a.s.$.x z 5.y.x.x.x.x.x.",
"x.x.x.x.x.0.D # h %.E.E.p.W w q 9 8 r 3 8 ( F. X X X XF.( 8 3 8 9 q e e W p.E.E.%.y # D q.c.x.x.x.x.",
"x.x.x.x.x.0.D # y %.E.E.p.W c Q ~ ~ v 9 r ( F. X X X XF.( 3 8 v ( ! Q c W p.E.E.%.y # D 0.x.x.x.x.x.",
"x.x.x.x.x.0.D # a %.E.E.p.W U _ a.a.( y $ ~ F. X X X XF.A % y ( a.a._ U W p.E.E.%.u % S 0.x.x.x.x.x.",
"x.x.x.x.x.q.D $ y %.R.E.p.W E m.R./.p.k o A s. X X X Xd.C @ j =./.T.p.Q ! p.E.T.%.h = D 0.c.x.x.x.x.",
"x.x.x.x.x.t.6.D N $.a.a.+.A _ a.E./.=.j O N a.!.!.!.Q.,.N @ j =.(.E.a._ ~ #.a.p.| D D 6.r.x.x.x.x.x.",
"x.x.x.x.x.z.e.8.6.I C C Z [ @.f.~.^.=.j X b { h.h.h.h...l X j =.(.^.f.:.O.Z M C K 6.8.y.k.x.x.x.x.x.",
"x.x.x.x.x.c.c.c.e.F = & b { 3.j.~./.=.k X i ' X.X.X.3.' , . j =./.~.j.3.{ s & = H q.c.c.c.c.x.x.x.x.",
"x.x.x.x.x.x.x.x.e.F = % t M { <.j.T.a.P B  .,.h.h.h.h.,. .B +.1.T.j.<.{ n t % = H q.x.x.x.x.x.x.x.x.",
"x.x.x.x.x.x.x.x.e.F = o & > b } <.h.f.s.a.d.j.Q.Q.!.Q.I.f.a.s.s.g.<. .b > * o = F e.x.x.x.x.x.x.x.x.",
"x.x.x.x.x.x.x.x.q.H =   . . & b { 3.g.Q.'.`.`.`.`.`.`.`.`.'.!.g.3.{ b & . X   = F q.x.x.x.x.x.x.x.x.",
"x.x.x.x.c.k.t.e.9.K x k j c v A } ..<.g.Q.Q.~.~.~.~.~.~.Q.Q.g.s...[ A Q c j j x K 9.q.t.l.x.x.x.x.x.",
"x.x.x.x.c.t.7.H K I %.p.S.S.A.*.Z ' @.,.4.f.h.j.h.j.h.h.f.f.,.{ ' [ &.A.A.Z.=.%.| G H 7.t.x.x.x.x.x.",
"x.x.x.x.x.e.H - k #.L._.}.OX.XS.^ s s ] { :.>.3.>.3.3.>.X.o.o.V d ^ m..XOX}.|.L.#.k - H 0.x.x.x.x.x.",
"x.x.l.t.e.9.G j A 1.T./.}.J.J.Z.B i s V o.:.2.K.K.K.K.>.o.o.V s i s n.H.J.[.).T.1.C k K 9.y.i.l.x.x.",
"x.x.t.7.H K | #.1.s.h.f.D.n.) W p p s ] o.,.m.[.[.[.[.G.m.] V s i p ! b.n.D.g.h.s.1.#.L K H 7.r.x.x.",
"x.x.0.F - x %.L.T.h.h...Z y 8 ; t i s s o.m.{.oXoXoXoX[.m.o.V s i t t : j Z :.4.h.T.j.#.x - H w.x.x.",
"x.x.8.S O j =./.].Y.h...n & . * t s s ] o.D.{.@X@X@X@X{.m.o.V s d t & X & s ..h.Y.]./.=.j O S 8.x.x.",
"x.x.8.S O j =.(.`.!.U.s.Z * . : d s V ] o.m.{.@X@X@X@X{.m.o.] V s i : o r Z s.Y.].'./.=.j O S 8.x.x.",
"x.x.8.1 O j 1.(. X`.'.g.[ u @ > s ] ] ] o.D.{.@X@X@X@X{.m.o.] ] ] s : o u O.P.].`.`.(.=.j O S 8.x.x.",
"x.x.0.F - x %.L.E.E.E.d.( ; o : s s ] O.O.D.J.+X+X+X+X.Xm.n.] ] V d : o r O.d.E.E.^.L.%.x - F 0.x.x.",
"c.c.r.7.H K | #.#.%.#.Z j $ X & t i v B _ n.H.XXXXXXXXH.n.^ C v i > * X $ k P %.%.%.%.I I H 7.t.x.x.",
"x.c.v.i.e.9.G k y y y u & O . X % & a T b.b.V.C.C.C.C.V.b.b.T h & @ o . X & u y y u k G 9.e.i.k.x.x.",
"x.x.x.x.x.q.H - # # # # O . . . o % e R b.b.b.B.B.B.M.M.b.b.R e % o . . . O O # # # - H e.x.x.x.x.x.",
"x.x.x.x.x.t.7.H D D D 1 - @ X * > l C ( n.b.b.g g g b.) b.b.^ B d t & . @ < 1 D D D H 7.t.x.x.x.x.x.",
"x.x.x.x.x.v.r.q.0.0.8.6.1 # o , n } { { @.A c 0 0 0 0 c A @.@.{ } n , @ $ 1 6.0.0.0.e.t.z.x.x.x.x.x.",
"x.x.x.x.x.x.c.x.x.x.x.r.J 1 & d } X.X.X...m , O X X O , m ..X.X.:.} b * < J t.x.x.x.x.x.x.x.x.x.x.x.",
"x.x.x.x.x.x.x.x.x.x.c.u.8.H 1 N n ' m m M N N S S S S N M M m M ' m N z H 8.u.x.x.x.x.x.x.x.x.x.x.x.",
"x.x.x.x.x.x.x.x.x.x.c.v.t.q.7.G 1 > , , , N J 8.8.8.8.L D , > > : 1 G 9.q.t.k.x.x.x.x.x.x.x.x.x.x.x.",
"x.x.x.x.x.x.x.x.x.x.x.x.x.x.t.J >       O z 8.x.x.x.x.8.z O       - J t.x.x.x.x.x.x.x.x.x.x.x.x.x.x.",
"x.x.x.x.x.x.x.x.x.x.x.x.x.x.i.J <       O z 8.x.x.x.x.8.z O       > J t.x.x.x.x.x.x.x.x.x.x.x.x.x.x."
};
