/* XPM */
static char *f0f54b3d580647aa8c0c94dffbde8a90A0cxAz9z7YoinS3s[] = {
/* columns rows colors chars-per-pixel */
"50 50 213 2 ",
"   c #7B567E",
".  c #625377",
"X  c #7B796E",
"o  c #75657A",
"O  c #967A76",
"+  c #857F6E",
"@  c #A67A7B",
"#  c #979B67",
"$  c #948272",
"%  c #9D8B73",
"&  c #AC9D6D",
"*  c #A4996D",
"=  c #B19D6F",
"-  c #A88678",
";  c #B58D7A",
":  c #B9887C",
">  c #B89676",
",  c #AFAC67",
"<  c #A6A667",
"1  c #BEAD6C",
"2  c #B6A86B",
"3  c #ACB363",
"4  c #B5B565",
"5  c #BBB865",
"6  c #BFA171",
"7  c #C5877F",
"8  c #CB9A79",
"9  c #DA9D7A",
"0  c #C4AD6D",
"q  c #CAAE6F",
"w  c #CBB46D",
"e  c #CDBD69",
"r  c #C4B769",
"t  c #D2B56D",
"y  c #D1BA6B",
"u  c #CEAD71",
"i  c #CAA473",
"p  c #D7A676",
"a  c #D8A377",
"s  c #D3AE72",
"d  c #D3A279",
"f  c #D8A278",
"g  c #CFB072",
"h  c #D3B071",
"j  c #BEC85F",
"k  c #BDC461",
"l  c #C5CE5F",
"z  c #C6D15E",
"x  c #C8D45D",
"c  c #C3C562",
"v  c #CCC465",
"b  c #C5CA60",
"n  c #CACB62",
"m  c #6F5685",
"M  c #84578B",
"N  c #92588B",
"B  c #9C5991",
"V  c #B65B8F",
"C  c #B95995",
"Z  c #A45A90",
"A  c #986588",
"S  c #9A7182",
"D  c #996799",
"F  c #86709D",
"G  c #8B6395",
"H  c #A36C86",
"J  c #AB7586",
"K  c #B77A86",
"L  c #A3659C",
"P  c #A86997",
"I  c #B46D95",
"U  c #BA6E96",
"Y  c #B26C9E",
"T  c #B7659B",
"R  c #827EA4",
"E  c #9576A3",
"W  c #986EA1",
"Q  c #A86FA6",
"!  c #B666A1",
"~  c #BC67A3",
"^  c #BC6AA2",
"/  c #B76CA0",
"(  c #A472A5",
")  c #AA73A5",
"_  c #AE7EAF",
"`  c #BD73AB",
"'  c #B374A9",
"]  c #BA7FB3",
"[  c #C75B9A",
"{  c #DA5D98",
"}  c #EE5B9E",
"|  c #C57C8C",
" . c #CA798C",
".. c #D27D88",
"X. c #C26C99",
"o. c #CB6A98",
"O. c #D76A98",
"+. c #CC719B",
"@. c #C07096",
"#. c #D97596",
"$. c #E47E8B",
"%. c #E8679A",
"&. c #E47496",
"*. c #E87597",
"=. c #D35BA1",
"-. c #CF5BA0",
";. c #EB5CA7",
":. c #E65EA6",
">. c #F25DA9",
",. c #CB68A6",
"<. c #DA6BAA",
"1. c #D867A8",
"2. c #C474AD",
"3. c #C974AE",
"4. c #DE70A0",
"5. c #D274B0",
"6. c #D976B3",
"7. c #CF76B0",
"8. c #E46BAC",
"9. c #EC6DAE",
"0. c #E668A4",
"q. c #ED71A3",
"w. c #E471A6",
"e. c #F272AF",
"r. c #E86CB0",
"t. c #F26AB1",
"y. c #E475B5",
"u. c #EC74B5",
"i. c #EA79B7",
"p. c #E978B7",
"a. c #F276B9",
"s. c #F578B8",
"d. c #F063A7",
"f. c #9486AC",
"g. c #968EB2",
"h. c #8D80A7",
"j. c #B183AF",
"k. c #AF88B3",
"l. c #B681B1",
"z. c #BB82B2",
"x. c #B88EB9",
"c. c #A399BA",
"v. c #BC93BB",
"b. c #B795BB",
"n. c #CB8883",
"m. c #D38D83",
"M. c #DB8B85",
"N. c #D88587",
"B. c #CF9181",
"V. c #D49183",
"C. c #DE9185",
"Z. c #DC8194",
"A. c #E28289",
"S. c #E18587",
"D. c #E78194",
"F. c #C682B5",
"G. c #CB83B7",
"H. c #C989BA",
"J. c #D383BA",
"K. c #D887BC",
"L. c #C492BD",
"P. c #CC91BF",
"I. c #E584BD",
"U. c #EB83BE",
"Y. c #F485BE",
"T. c #AF9FC0",
"R. c #B69DC1",
"E. c #BC9BC1",
"W. c #A5A6C2",
"Q. c #ABA6C3",
"!. c #B4A6C5",
"~. c #BAA6C6",
"^. c #BDA8C7",
"/. c #BEA7C8",
"(. c #BEA8C8",
"). c #B6A8C3",
"_. c #D78FC1",
"`. c #C49BC2",
"'. c #CD98C2",
"]. c #D391C1",
"[. c #DC93C2",
"{. c #D29BC4",
"}. c #DA9DC8",
"|. c #DA9CC8",
" X c #EE83C0",
".X c #F385C1",
"XX c #E491C3",
"oX c #EC92C6",
"OX c #E59BCA",
"+X c #ED9ACB",
"@X c #F594C9",
"#X c #F39FCE",
"$X c #F191C7",
"%X c #C5A2C5",
"&X c #CBA1C6",
"*X c #C1A7C8",
"=X c #C4A8C9",
"-X c #CCA8CB",
";X c #C8A5C8",
":X c #D3A2C9",
">X c #DBA3CB",
",X c #D4A9CD",
"<X c #DBA9CE",
"1X c #D4A1C7",
"2X c #DEA9D0",
"3X c #E3A5CE",
"4X c #EBA3CF",
"5X c #E2AAD0",
"6X c #EBAAD3",
"7X c #ECA5D1",
"8X c #F3ABD4",
"9X c #F7A7D4",
"0X c #F4A1CF",
/* pixels */
"x x x x x x x x x x x x x x x x x x x x x x x x x x x x x x x x x x x x x x x x x x x x x x x x x x ",
"x x x x x x x x x x x x x x x x x x x x x x x x x x x x x x x x x x x x x x x x x x x x x x x x x x ",
"x x x x x x x x x x x x x x x x x x x x z v y s s s s y v x x x x x x x x x x x x x x x x x x x x x ",
"x x x x x x x x x x x x x x x x x x x x z t 9 S.S.A.A.9 h x x x x x x x x x x x x x x x x x x x x x ",
"x x x x x x x x x x x x x x x x x x x x l a A.} } } >.A.a n x x x x x x x x x x x x x x x x x x x x ",
"x x x x x x x x x x x x x x x x x x l e i 8 #.:.;.;.>.*.9 6 5 c z x x x x x x x x x x x x x x x x x ",
"x x x x x x x x x x x x x x z x x l r 8 7 | o.1.8.8.t.O. .- = r l z x x x x x x x x x x x x x x x x ",
"x x x x x x x x x x x x x x z z x l > @ V T ^ 2.5.r.u.<.U Z @ 6 z x x x x x x x x x x x x x x x x x ",
"x x x x x x x x x x x x x x z l 5 1 ; J C T 2.G.7._. X3.! B H : u v v z x x x x x x x x x x x x x x ",
"x x x x x x x x x x x x x x l 1 = - K I / 2.F.P._._.[.G.` Q I | M.f t v x x x x x x x x x x x x x x ",
"x x x x x x x x x x x x x x c = @ A P Y ` F.P.1X|.:X{.`.l.( / +.%.A.f v x x x x x x x x x x x x x x ",
"x x x x x x x x x x x x n e 0 ; H B P ) z.L.{.<X,X=X=XE.x.] 2.<.;.*.C.h v v x x x x x x x x x x x x ",
"x x x x x x x x x x x b w 8 7 K H L ) j.x.L.1X<X-X*X~.E.'.].J.y.9.q.D.C.p t v x x x x x x x x x x x ",
"x x x x x x x x x x x v 8 ..o.U / ) j.b.~.=X,X<X-X^.Q.~.:XOX+X.Xs.e.q.*.A.f v z x x x x x x x x x x ",
"x x x x x x x x x n v g V.O.{ ,.2.l.x.b.).*X-X<X=X~.W.~.,X7X#X$X Xi.9.d.*.M.q c l l x x x x x x x x ",
"x x x x x x x x n w d V.Z.w.<.5.G.L.b.).!.(.=X,X=X!.W.~.,X6X4XOXXXI.i.t.w.n.; & 4 l x x x x x x x x ",
"x x x x x x x x v d Z.O.w.y.p. XK.1X;X).Q.~.*X-X=X!.W.!.-X2X2X>X1XP.I.s.w.@.H O = 5 z z x x x x x x ",
"x x x x x x n l g V.O.8.r.y. XXX3X5X-X).Q.).(.=X^.!.Q.(.-X<X,X-X=X`.[.U.y.^ N A - 0 v v z x x x x x ",
"x x x x x v t i V.Z.w.8.6.J._.'.;X-X-X=X=X=X(.~.(.(.=X=X-X-X=X*X~.%X{.XXK.2.Q P K 7 p t v x x x x x ",
"x x x x x y 8 ..#.w.u.p.J.`.R.R.).).-X,X5X-X^.Q.(.-X2X<X-X*X~.!.Q.~.`.}.[.F.' Y +.#.A.9 e x x x x x ",
"x x x z b u m.O.:.r.a.p.].R.W.W.W.Q.=X5X8X,X^.W.(.<X8X2X-X^.Q.Q.W.Q.*X,X|.P.z.` 1.0.%.A.s l z x x x ",
"x x v r 6 8  .1.8.p..XoX}.:X/.!.Q.Q.*X,X5X-X~.W.!.=X<X-X(.!.Q.Q.W.!.-X2X>X'.x.l.7.8.9. .: < 4 j x x ",
"x x r 8 K @.+.<.y. X@X0X7X5X,X=XQ.W.).;X,X-X).Q.!.!./.~.Q.Q.W.Q.W.~.,X5X3X&XE.x.J.p.r.+.J O * 4 x x ",
"x l 1 : V [ ,.5. XoX9X8X9X8X6X,X).W.).*X-X^.).).!.Q.Q.Q.Q.W.W.W.Q./.,X6X6X,X!.!.'.6.p.~ B   $ , x x ",
"x x 0 7 [ [ ,.,.F.'.:X5X5X6X6X,X-X(.(.(.~.(.(.(.(.(.=X!.!.W.Q.!.=X-X-X<X,X,X-X`.]._.3.T N   $ , x x ",
"x x u N.} [ ~ Q _ x.E.=X,X2X5X5X2X,X=X^.!.^.(.-X,X,X2X=X!.W.!.=X<X,X-X=X=X-X,X>X].3.` L M   $ , x x ",
"x x s S.} =.! W E g.T.Q./.,X2X6X6X8X,X^.W.!.=X2X2X6X8X2X=XQ.(.,X7X6X-XQ.!.-X6X4X]._ Q G M m $ , x x ",
"x x y 9 A.#.U L ( k.x.E.{.-X,X5X6X5X-X!.W.^.,X5X2X2X2X-X=X!.=X,X6X5X-X).~.:X4X+XK.3./ I S O * 4 x x ",
"x x v t p B.| T ~ 3.J._.{.,X,X2X5X5X-X!.W.(.,X6X2X,X=X=X=X-X,X2X5X<X-X*X%X|.oX.Xy.1.=.@.; & , c x x ",
"x x z z n u 7 [ -.8.u.U.[.{.-X,X2X,X=X!.W.=X2X8X,X=XW.(.-X2X2X2X<X,X,X=X&X[.U.s.t.>.%.N.s v n b x x ",
"x x x x x w 8 7 #.#.9.a. X].}.>X5X2X,X(.(.-X2X6X,X(.W.!.,X6X5X5X5X<X1X`.L.F.3.,.O.&.$.9 h x x x x x ",
"x x x x x l w p V.&.q.r.p. XXXOX7X5X2X2X,X2X2X5X,X!.W.!.,X6X6X6X6X>X'.L.l.) D D K B.f h v x x x x x ",
"x x x x x x z l p S.%.>.t.s.Y.@X9X8X8X8X8X6X5X,X=X).W.~.<X6X8X8X8XOX].] ( G m o $ , z z x z x x x x ",
"x x x x x x x x y f $.*.q.e.a.Y.K.1X3X5X5X5X5X<X,X*X!.=X,X5X6X7X#XXXK.3.Q A o X # 5 x x x x x x x x ",
"x x x x x x x x n t 9 C.D.q.9.7.j.k.v.%X-X<X5X6X5X,X-X-X-X-X|.OX$X Xy.<.o.K - # 3 j x x x x x x x x ",
"x x x x x x x x x n v h C.%.0.T E h.g.c.).-X<X8X8X6X6X<X=X~.E._. Xa.t.;.%.8 1 k j j x x x x x x x x ",
"x x x x x x x x x x x v f A.#.U D F h.g.c.E.:X6X6X8X8X5X&XR.v.J.6.8.w.%.$.9 v x x x x x x x x x x x ",
"x x x x x x x x x x x v t f m. .T Q ( h.g.c.~.:X<X6X9X4X}.].G.2.~ X. .M.f t v x x x x x x x x x x x ",
"x x x x x x x x x x x x v v t m.O.[ / W R g.c.!.=X5X8X#X$XU.5.! B H ; 0 v v x x x x x x x x x x x x ",
"x x x x x x x x x x x x x z v f $.%.X.D F h.c.c.=X3X9X@X.Xs.<.I N O 2 k z x x x x x x x x x x x x x ",
"x x x x x x x x x x x x x x n t 9 M. .I L ' z.P.K.XX@XY.s.t.4.| - & 4 b x x x x x x x x x x x x x x ",
"x x x x x x x x x x x x x x x v e s 8 o.[ ,.6.I.U.U.Y.s.t.>.&.V.1 5 b x x x x x x x x x x x x x x x ",
"x x x x x x x x x x x x x x x x x v i ..{ %.9.a.s.i.y.w.0.} $.a n x x x x x x x x x x x x x x x x x ",
"x x x x x x x x x x x x x x x x x l t 8 m.#.w.t.1.,.Y U Z.S.9 t z x x x x x x x x x x x x x x x x x ",
"x x x x x x x x x x x x x x x x x x v y i 9 *.;.[ B M N > u e v x x x x x x x x x x x x x x x x x x ",
"x x x x x x x x x x x x x x x x x x x x l p $.} [ O . + # l x x z x x x x x x x x x x x x x x x x x ",
"x x x x x x x x x x x x x x x x x x x x n t 9 $.7 - + # 4 l x x x x x x x x x x x x x x x x x x x x ",
"x x x x x x x x x x x x x x x x x x x x x v t u 0 2 < , j z x x x x x x x x x x x x x x x x x x x x ",
"x x x x x x x x x x x x x x x x x x x x x x x x x x x x x x x x x x x x x x x x x x x x x x x x x x ",
"x x x x x x x x x x x x x x x x x x x x x x x x x x x x x x x x x x x x x x x x x x x x x x x x x x "
};
