/* XPM */
static char *_00428034d2e4854dc86391969a46987pCXvwcFT8ZJbN2Uw[] = {
/* columns rows colors chars-per-pixel */
"50 50 148 2 ",
"   c #BEBD76",
".  c #BCB67F",
"X  c #BEB97C",
"o  c #BFC172",
"O  c #C7D25F",
"+  c #C8D45D",
"@  c #C5CD65",
"#  c #C2C56E",
"$  c #C3C969",
"%  c #C7D061",
"&  c #C2C371",
"*  c #9F77BF",
"=  c #A37CBD",
"-  c #965EDF",
";  c #9F79C3",
":  c #9664D6",
">  c #9669D7",
",  c #9A69D3",
"<  c #9566DA",
"1  c #9C66DF",
"2  c #956BDD",
"3  c #9D6BDB",
"4  c #9670DF",
"5  c #9973DF",
"6  c #9C7DDD",
"7  c #A177C2",
"8  c #A57BC3",
"9  c #A87EC1",
"0  c #A377C9",
"q  c #A478C8",
"w  c #A26ED9",
"e  c #A575D3",
"r  c #A370D9",
"t  c #8E55EA",
"y  c #905AE5",
"u  c #9155ED",
"i  c #9957EF",
"p  c #965CEE",
"a  c #9A59EE",
"s  c #9752F4",
"d  c #9D5FF2",
"f  c #9654F9",
"g  c #9854FC",
"h  c #9E5FFA",
"j  c #9463E4",
"k  c #9867E5",
"l  c #966FE0",
"z  c #9A6CE5",
"x  c #9562E9",
"c  c #9862EE",
"v  c #9A6EE8",
"b  c #9770E1",
"n  c #9A71E4",
"m  c #9F7FE0",
"M  c #9C61F4",
"N  c #9E60FA",
"B  c #A26AE6",
"V  c #A169E8",
"C  c #A17EE3",
"Z  c #A170EF",
"A  c #A57EE9",
"S  c #AA7FEF",
"D  c #A166F5",
"F  c #A46EF5",
"G  c #A061F8",
"H  c #A46BF8",
"J  c #A270F1",
"K  c #AB7CF3",
"L  c #AF9B9A",
"P  c #B09F96",
"I  c #B29D9A",
"U  c #B7AE87",
"Y  c #B7AC8A",
"T  c #B8AB8D",
"R  c #BBB283",
"E  c #B5A396",
"W  c #B4A09A",
"Q  c #A78AAE",
"!  c #A98CAE",
"~  c #B197A4",
"^  c #B198A2",
"/  c #A785B4",
"(  c #AC8CB3",
")  c #A981BE",
"_  c #9F80DD",
"`  c #A080DF",
"'  c #A48CDC",
"]  c #A98FDF",
"[  c #A790DA",
"{  c #A994DB",
"}  c #AE9CDA",
"|  c #B19EDE",
" . c #A5A6C6",
".. c #A7A6C9",
"X. c #AAA6CD",
"o. c #AEA6D3",
"O. c #AEA0D8",
"+. c #B0A6D6",
"@. c #B2A5D9",
"#. c #B1A6D8",
"$. c #B2A7D8",
"%. c #B2A6D9",
"&. c #B3A5DB",
"*. c #B2A6DA",
"=. c #B3A7DA",
"-. c #B5A7DB",
";. c #B2A1DD",
":. c #B3A3DD",
">. c #B3A3DE",
",. c #B4A5DD",
"<. c #B4A6DC",
"1. c #B4A6DD",
"2. c #B3A5DB",
"3. c #A280E1",
"4. c #A280E2",
"5. c #A98BE2",
"6. c #A88CE1",
"7. c #A98EE0",
"8. c #A88FE0",
"9. c #A98AE4",
"0. c #A98CE2",
"q. c #AA80EE",
"w. c #AF8FE8",
"e. c #AF8FEA",
"r. c #B08FEA",
"t. c #B28DEF",
"y. c #B28DEE",
"u. c #AD95E1",
"i. c #AE96E0",
"p. c #AD95E1",
"a. c #B09CE0",
"s. c #B39EE0",
"d. c #B39EE1",
"f. c #B299E4",
"g. c #B299E5",
"h. c #B29CE2",
"j. c #B99EE9",
"k. c #B99EEA",
"l. c #B99EEB",
"z. c #BA9EEB",
"x. c #B99EEB",
"c. c #B28DF0",
"v. c #B28DF0",
"b. c #B7A6E1",
"n. c #B7A6E1",
"m. c #BAA5E5",
"M. c #BBA6E6",
"N. c #BAA6E6",
/* pixels */
"+ + + + + + + + + + + + + + + + + + + + + + + + + + + + + + + + + + + + + + + + + + + + + + + + + + ",
"+ + + + + + + + + + + + + + + + + + + + + + + + + + + + + + + + + + + + + + + + + + + + + + + + + + ",
"+ + + + + + + + + + + + + + + + + + + + % & X T T T T . & % + + + + + + + + + + + + + + + + + + + + ",
"+ + + + + + + + + + + + + + + + + + + + % R ^ = 9 9 9 ^ R % + + + + + + + + + + + + + + + + + + + + ",
"+ + + + + + + + + + + + + + + + + + + + @ E q s s s s q E @ + + + + + + + + + + + + + + + + + + + + ",
"+ + + + + + + + + + + + + + + + + % # X T ( w g g g g w ( T X & % + + + + + + + + + + + + + + + + + ",
"+ + + + + + + + + + + + + + + + + @ R ^ 9 e V G G G G B 0 [ ^ R @ + + + + + + + + + + + + + + + + + ",
"+ + + + + + + + + + + + + + + + + $ I 0 i d D H H G F D a a q I $ + + + + + + + + + + + + + + + + + ",
"+ + + + + + + + + + + + + + % o   Y ( w f M F K K K K F G f w ( Y   # % + + + + + + + + + + + + + + ",
"+ + + + + + + + + + + + + + $ . L / 0 3 c Z K y.c.c.t.S V d 2 0 / I . # + + + + + + + + + + + + + + ",
"+ + + + + + + + + + + + + + # I 7 y j k z 4.w.j.z.z.z.y.A v k 1 < = P $ + + + + + + + + + + + + + + ",
"+ + + + + + + + + + + % $   Y Q , u c n 4.9.f.m.M.M.M.j.9.m z x y , Q U   @ % + + + + + + + + + + + ",
"+ + + + + + + + + + + $ R L Q ; : x n e 7.u.d.b.b.b.b.d.u.6.C n j > ; Q P . $ + + + + + + + + + + + ",
"+ + + + + + + + + + + & L ; : < 2 l 4.p.| >.,.-.,.,.,.>.| a.u.m l 2 > , = P o O + + + + + + + + + + ",
"+ + + + + + + + % @ & U Q - t j 4 6 ' } =.$.*.$.$.*.*.*.,.,.{ ' 6 4 < y : Q U # $ % + + + + + + + + ",
"+ + + + + + + + # R W ! ; < j 2 _ ' { O.$.*.+.o.o.o.o.o.*.*.} { ' ` 2 < : = Q L . # + + + + + + + + ",
"+ + + + + + + +   W ) 3 2 2 b 6 [ } O.o.+.o.o.X.o.o.o.o.o.o.o.O.} ] _ 2 2 > , 7 L X O O O O + + + + ",
"+ + + + + % @ $ Y / 1 d k b 6 ' } o.+.o.o.o.X.X.X.X.X.X.o.o.o.*.*.} ' 6 l j t < / T # $ O + + + + + ",
"+ + + + + # R I ( q k k n 4.' { O.$.o.o.X.X.X.X.X.X.X.X.X.o.o.o.$.O.{ ] m n x j 0 ( I R # + O O + + ",
"+ + + + + X ^ 8 w 5 z v 4.7.a.O.o.o.o.X.X.X.....X.......X.X.X.o.o.O.} } 6.4.v k 1 w 0 ~ X + + O + + ",
"+ + % @ @ T ) a f c v C 6.a.*.*.+.o.X.X.X.X..... .........X.X.X.o.o.$.1.a.9.m v c f a ) T @ @ O + + ",
"+ + # R W ( e D M Z A 9.p.| *.*.+.X.X.X..... . . . . . .....X.X.o.o.o.*.a.p.9.A V M M e ( E . o + + ",
"+ + . ^ q w B M F K w.g.b.| *.$.o.X.X.X. ... . . . . . .....X.X.X.o.*.$.>.d.g.e.q.F H B e 8 ^ . + + ",
"+ + T 9 f g N H K v.l.m.n.,.$.o.o.X.X... . . . . . . . . .....X.X.o.o.O.,.b.N.l.v.K H N f s [ . + + ",
"+ + T 9 s g h H K v.l.N.n.b.o.o.X.X..... . . . . . . . . . . . .X.o.$.o.1.n.N.l.c.K F h g s = T + + ",
"+ + T 9 s g h H K v.l.N.b.,.*.*.+.X.X... . . . . . . . . . . ...X.X.o.$.n.n.N.l.c.K H h g s = U + + ",
"+ + T 9 s g h H K v.l.N.b.,.O.o.X.X.X... . . . . . . . . .......X.o.o.*.*.n.N.l.c.K H h g s _ R + + ",
"+ + . ^ 8 r V D J K e.f.a.b.*.o.o.o.X..... . . . . . . .......X.o.o.o.$.*.n.g.e.S H D V w q ^ R + + ",
"+ + & R P ( e d M Z A 9.u.>.-.+.o.o.X.X..... . . . . .........X.o.o.$.$.:.u.9.A V D d e ( W Y & + + ",
"+ + % % @ T ) a f c z m 6.d.1.*.o.o.X.X.X.X... ... .......X.X.X.o.$.$.$.| ] C z d f i 9 E # @ % + + ",
"+ + + + + X ^ q 3 3 k z C 7.} } +.o.o.X.X.X.........X.X.X.X.X.+.o.O.} } ] C n k 3 w 0 ^ R % % + + + ",
"+ + + + + # R W ( q j x n m ' { } $.$.o.X.X.X.X.X.X.X.X.X.X.X.+.O.O.{ 8.e n p j 0 ( I R o % % + + + ",
"+ + + + + + @ # T ( y u j l 6 ' } O.*.o.o.o.X.X.o.X.X.o.o.o.o.$.$.} ' 6 2 y u - / Y % % % + + + + + ",
"+ + + + + + + + X L 7 , 3 < 4 _ [ } O.O.o.o.o.o.o.X.o.o.o.o.O.O.} ] 6 2 < < > ; L   + + O O + + + + ",
"+ + + + + + + + # R I Q ; > j 5 _ ' { } *.$.*.o.o.o.o.o.O.$.} { _ _ b y : ; ! P U o + + + + + + + + ",
"+ + + + + + + + % @ # U Q , y j 4 6 ' } *.*.*.*.*.*.*.$.,.b.} ' _ l j t : Q . o o + + + + + + + + + ",
"+ + + + + + + + + + + o P * , > 2 2 4.6.d.| :.1.*.*.b.b.O.h.7.m 4 2 < : * L o + + + + + + + + + + + ",
"+ + + + + + + + + + + $ . P Q * 3 y n 4.9.u.d.b.n.n.n.h.p.0.m n y < ; Q L . o + + + + + + + + + + + ",
"+ + + + + + + + + + + % $ o U Q , u c v m 9.f.M.N.N.N.g.9.m v x u , Q U   o + + + + + + + + + + + + ",
"+ + + + + + + + + + + + + + # P 7 - j k v A r.z.N.l.l.e.A v k x j ; P o + + + + + + + + + + + + + + ",
"+ + + + + + + + + + + + + + $ R I ) q w d D S t.t.t.y.q.Z c k 0 / P . o + + + + + + + + + + + + + + ",
"+ + + + + + + + + + + + + + @ $   T ( w f M F K K S q.J M f w ( Y o o % + + + + + + + + + + + + + + ",
"+ + + + + + + + + + + + + + + + + # W q i d D H F F F D M i q W o + + + + + + + + + + + + + + + + + ",
"+ + + + + + + + + + + + + + + + + @ R ^ ) e V h G G D B e ) ^ R % + + + + + + + + + + + + + + + + + ",
"+ + + + + + + + + + + + + + + + + % # X T ( r g g g g r ( T X & + + + + + + + + + + + + + + + + + + ",
"+ + + + + + + + + + + + + + + + + + + + @ I q g s s g 8 E @ + + + + + + + + + + + + + + + + + + + + ",
"+ + + + + + + + + + + + + + + + + + + + % R ^ 9 9 9 = ^ R @ + + + + + + + + + + + + + + + + + + + + ",
"+ + + + + + + + + + + + + + + + + + + + % & R T T T T . # O + + + + + + + + + + + + + + + + + + + + ",
"+ + + + + + + + + + + + + + + + + + + + + O + O + O + + + + + + + + + + + + + + + + + + + + + + + + ",
"+ + + + + + + + + + + + + + + + + + + + + + O O O O + + + + + + + + + + + + + + + + + + + + + + + + "
};
