/* XPM */
static char *_a283b6cdddb45deaf623b3f4da2065aaps39MckGfZGrLwn[] = {
/* columns rows colors chars-per-pixel */
"50 50 174 2 ",
"   c #25222C",
".  c #2B282E",
"X  c #312E2F",
"o  c #23233C",
"O  c #28273F",
"+  c #37383F",
"@  c #3F3F33",
"#  c #444335",
"$  c #505138",
"%  c #5C5E3D",
"&  c #5F613D",
"*  c #63663E",
"=  c #66693F",
"-  c #2D2D45",
";  c #302F46",
":  c #2E314F",
">  c #323345",
",  c #3A3C41",
"<  c #36364B",
"1  c #3A3B4B",
"2  c #373A49",
"3  c #2E3250",
"4  c #303454",
"5  c #373B55",
"6  c #3B3D52",
"7  c #353A5C",
"8  c #3A3D5D",
"9  c #373D60",
"0  c #403E52",
"q  c #3F434C",
"w  c #3C4157",
"e  c #3D4259",
"r  c #3B4164",
"t  c #3D456C",
"y  c #3F4871",
"u  c #494D45",
"i  c #43454A",
"p  c #4A4C4D",
"a  c #464949",
"s  c #4D5146",
"d  c #595D46",
"f  c #565A4D",
"g  c #595E4C",
"h  c #525646",
"j  c #464757",
"k  c #4A4E51",
"l  c #484A58",
"z  c #4E5453",
"x  c #4F505C",
"c  c #515653",
"v  c #585B50",
"b  c #53555D",
"n  c #5A5D5D",
"m  c #5E634D",
"M  c #6B6F41",
"N  c #61654E",
"B  c #656A4E",
"V  c #6E7342",
"C  c #6C724A",
"Z  c #717443",
"A  c #767A45",
"S  c #757B4C",
"D  c #787E4D",
"F  c #757A47",
"G  c #616452",
"H  c #6A6E52",
"J  c #656954",
"K  c #6E725A",
"L  c #6E7156",
"P  c #71755B",
"I  c #777C55",
"U  c #424564",
"Y  c #464A6A",
"T  c #4A4C6A",
"R  c #454866",
"E  c #515466",
"W  c #52556C",
"Q  c #5A5C6C",
"!  c #414A74",
"~  c #464F79",
"^  c #475079",
"/  c #4A527C",
"(  c #585A74",
")  c #5D6060",
"_  c #5E6174",
"`  c #5E607A",
"'  c #676A68",
"]  c #686C68",
"[  c #646761",
"{  c #6C7069",
"}  c #606376",
"|  c #65667F",
" . c #656977",
".. c #7A804E",
"X. c #7C8146",
"o. c #7D8253",
"O. c #878E49",
"+. c #8E954C",
"@. c #949B4D",
"#. c #989F4E",
"$. c #808654",
"%. c #858C52",
"&. c #8B9252",
"*. c #8F9659",
"=. c #939B53",
"-. c #939B59",
";. c #9AA24F",
":. c #9CA453",
">. c #9FA852",
",. c #A3AC54",
"<. c #A4AD58",
"1. c #ABB455",
"2. c #AFB956",
"3. c #A7B158",
"4. c #ACB558",
"5. c #AFB858",
"6. c #A6B056",
"7. c #B2BC56",
"8. c #B1BB59",
"9. c #B6C057",
"0. c #B7C158",
"q. c #BAC559",
"w. c #BEC95A",
"e. c #C1CD5B",
"r. c #C6D25C",
"t. c #C8D45D",
"y. c #4E5680",
"u. c #525983",
"i. c #575F88",
"p. c #5D6183",
"a. c #5A628B",
"s. c #636685",
"d. c #6B6B84",
"f. c #60668E",
"g. c #6A6E8B",
"h. c #6C718D",
"j. c #636A93",
"k. c #696F96",
"l. c #686F99",
"z. c #6A7196",
"x. c #6B729B",
"c. c #727696",
"v. c #74799D",
"b. c #797D9E",
"n. c #747BA0",
"m. c #797FA4",
"M. c #7D82A5",
"N. c #8286A6",
"B. c #8187AA",
"V. c #858AAB",
"C. c #888CAB",
"Z. c #8D91AD",
"A. c #8A8FB0",
"S. c #8A8FB0",
"D. c #8D92B2",
"F. c #9196B5",
"G. c #9699B3",
"H. c #9398B7",
"J. c #9498B7",
"K. c #959AB7",
"L. c #9499B7",
"P. c #969BB9",
"I. c #999EBB",
"U. c #9A9EBB",
"Y. c #999EBB",
"T. c #9DA1BD",
"R. c #9FA3BF",
"E. c #9DA2BE",
"W. c #9EA2BE",
"Q. c #9FA4C0",
"!. c #A2A6C1",
"~. c #A3A7C2",
"^. c #A0A5C0",
"/. c #A3A7C2",
/* pixels */
"t.t.t.t.t.t.t.t.t.t.t.t.t.t.t.e.e.e.q.e.e.e.e.q.e.e.e.e.e.e.7.e.e.e.e.t.t.t.t.t.t.t.t.t.t.t.t.t.t.t.",
"t.t.t.t.t.t.t.t.t.t.t.t.t.r.t.e.e.e.e.e.e.e.e.e.e.e.e.e.e.e.e.e.e.e.r.t.t.t.t.t.t.t.t.t.t.t.t.t.t.t.",
"t.t.t.t.t.t.t.t.t.t.t.t.e.e.q.1.#.O.+.+.+.+.+.+.&.+.+.+.+.+.+.+.+.;.1.e.e.t.t.t.t.t.t.t.t.t.t.t.t.t.",
"t.t.t.t.t.t.t.t.t.t.t.t.e.e.5.+.Z % % % % % % % % % % % % d % % % Z +.7.e.r.r.t.t.t.t.t.t.t.t.t.t.t.",
"t.t.t.t.t.t.t.t.t.t.t.e.e.0.,.A #             . .         .       # A 1.e.e.t.t.t.t.t.t.t.t.t.t.t.t.",
"t.t.t.t.t.t.t.t.t.t.t.e.2.,.&.H k < < 0 0 0 0 0 0 0 0 0 0 0 0 0 < p L &.<.5.q.e.e.t.t.t.t.t.t.t.t.t.",
"t.t.t.t.t.t.t.t.t.e.t.8.#.$.H [ Q ( ` d.d.d.d.d.d.d.d.d.d.d.| ( ( Q [ K I -.5.e.e.t.t.t.t.t.t.t.t.t.",
"t.t.t.t.t.t.t.t.t.t.e.5.%.G b } h.b.N.Z.G.G.G.G.G.J.G.G.G.G.Z.N.m.d.( l v o.<.7.e.e.t.t.t.t.t.t.t.t.",
"t.t.t.t.t.r.t.r.w.8.4.-.I ) Q d.m.Z.J.T.~.~.~.~.~.~.~.~.~.~.W.J.A.b.s.W b K %.,.2.q.e.r.r.t.t.t.t.t.",
"t.t.t.t.t.r.r.e.8.-.$.P {  .g.c.C.J.U.W.~.~.~.~.~.~.~.~.~.~.W.U.P.V.c.s.` ' K o.-.2.e.e.r.t.t.t.t.t.",
"t.t.t.t.t.r.e.e.<.o.v E } h.M.C.J.T.^.!.~.~.~.~.~.~.~.~./././.^.R.P.V.m.h._ x v D ,.e.e.r.r.t.t.t.t.",
"t.t.r.r.r.w.7.3.*.P b T s.m.C.H.T.~.~.~.~.~.~.~.~.~.~.~././././.~.U.G.A.b.s.T x K *.,.2.q.e.e.r.t.t.",
"t.t.r.e.w.2.=.$.P ] } s.c.C.K.U.^.~.~.~.~.~.~.~.~.~.~.~./.~.~.~.~.^.U.J.C.c.s._ ' K o.-.6.0.e.e.t.t.",
"t.t.e.q.7.:.I f b } h.m.C.K.T.^.^.~.~.~.~.~.~.~.~.~.~.~./.~.~.~.~.!.^.W.G.V.m.h.` b c S =.1.7.e.t.t.",
"t.t.q.2.,.%.J j T s.b.C.H.T.~.~.~.~.~.~.~.~.~.~.~.~.~.~.~.~.~.~.~.~././.W.J.A.m.s.T j G ..#.,.0.t.t.",
"t.t.2.+.Z B n W s.c.C.H.U.^.~.~.~.~.~.~.~.~.~.~.~.~.~.~.~.~.~.~.~.~./.!.R.U.J.V.c.` W n N = +.2.t.t.",
"t.t.>.Z # a E | x.M.F.T.R./.~.~.~.~.~.~.~.~.~.~.~.~.~.~.~.~.~.~.~.~.~.~.Q.Q.T.H.M.z.p.E i # V ;.t.t.",
"t.t.@.%   - T j.m.A.Y././.~.~.~.~.~.~.~.~.~.~.~.~.~.~.~.~.~.~.~.~.~.~.~.~.~.!.I.D.m.j.T -   % @.t.t.",
"t.t.@.%   ; T f.n.V.P.T.R./.~.~.~.~.~.~.~.~.~.~.~.~.~.~.~.~.~.~.~.~.~.~.~.R.E.L.V.v.f.Y -   % @.t.t.",
"t.t.@.%   - R p.x.M.D.P.U./././.~.~.~.~.~.~.~.~.~.~.~.~.~.~.~.~.~.~.~.~.Q.E.P.D.M.x.p.R -   % @.t.t.",
"t.t.@.%   - r u.k.n.C.H.Y.R././.~.~.~.~.~.~.~.~.~.~.~.~.~.~.~.~.~.~.~.Q.E.T.D.V.n.z.i.j -   % @.t.t.",
"t.t.@.%   - 8 / a.x.m.B.S.Y.T.T.^.~.~.~.~.~.~.~.~.~.~.~.~.~.~.~.~.~.Q.Q.L.F.M.M.z.a./ r -   % @.t.t.",
"t.t.@.%   o 5 ~ u.a.k.v.N.S.Y.U.^.~.~.~.~.~.~.~.~.~.~.~.~.~.~.~.Q.Q.Q.P.D.M.n.k.a.u.~ 5 o   % @.t.t.",
"t.t.@.%   o 4 t ^ u.a.k.n.V.F.Y.W.~.~.~.~.~.~.~.~.~.~.~.~.~.~.~.Q.Q.L.H.M.M.k.a.u./ t 4 o   % @.t.t.",
"t.t.@.%   o 3 t ~ y.u.a.l.n.B.S.P.W.Q.^.~./././.~.~./././.~.^.^.E.L.D.B.M.k.a.u.y.~ y 4     % @.t.t.",
"t.t.@.%   o 3 t ! ~ y.u.f.l.n.N.D.P.U.Q.~./././.~.~././.~.~.^.U.Y.D.M.n.z.a.u.y.^ ! t 3 o   % @.t.t.",
"t.t.@.%   o 3 t ! ! ! y.u.i.k.n.B.F.P.Q.~.~././.~.^.~.!.~.~.T.P.D.C.n.l.a.u./ ! y ! r 3 o   % @.t.t.",
"t.t.@.%   - 3 t y ! ! ~ y.u.f.k.m.B.A.F.Y.Y.Y.P.U.U.U.U.U.P.J.A.B.n.k.a.u.y.^ y ! y t 3 o   % @.t.t.",
"t.t.+.%   o 3 9 y ! ! ! ~ y.u.a.l.n.m.V.D.D.D.D.D.D.S.A.D.D.V.M.n.l.a.y.y.~ ~ ~ ! ! y 3 o   % @.t.t.",
"t.r.@.%   o 4 t ! y y ! ! ~ y.u.a.l.x.m.B.B.B.B.B.B.B.B.B.B.m.x.j.a.i.y.~ ~ y y y y y 4 o   % @.t.t.",
"t.t.@.&   o 4 t y ! ! ! ! ! ~ u.u.f.l.n.n.m.m.m.m.m.m.m.m.m.n.l.a.i.y.~ y y ! y y y t 3 o   % @.t.t.",
"t.t.+.h   o 4 t ! y ! ! ! ! ! y.u.i.j.l.n.n.n.n.n.n.n.n.n.n.l.f.i.y.y.y.y y ! y ! y t 3 o   % @.t.t.",
"t.t.@.&   o 3 t y y y y y y y / y.y.i.j.l.l.l.l.x.x.l.x.l.l.l.i.u.y.y.y y ! y y ! y t 4 o   % @.t.t.",
"t.t.;.V @ + q r t t y y y y ~ ~ y.y.i.j.l.l.l.l.l.l.l.l.l.l.j.i.y.y.! ! y ! ! y t t 9 5 + @ V ;.t.t.",
"t.t.1.+.V m q w 7 r t y y y y ~ y.y.i.j.l.l.l.l.l.l.l.l.l.l.j.i.y.~ ~ ! ! y ! ! 9 9 5 a h = O.1.t.t.",
"t.t.q.6.;...m > 3 r t y y y ~ ~ y.u.i.f.l.l.l.l.l.l.l.l.l.l.j.i.y.y.y.! ! ! t t 9 3 : h Z +.>.7.t.t.",
"t.t.w.q.9.@.C u q w r t y y y ~ ~ u.i.j.l.l.l.l.l.l.l.l.l.l.j.i.y.y.! ! ! 9 t r e q s C +.,.7.w.t.t.",
"t.t.t.w.q.,.&.C m k w 7 t y y ~ y.y.i.j.l.l.l.l.l.l.l.l.l.l.j.i.y.y.y.! ! 9 7 8 c B D &.,.7.q.e.t.t.",
"t.t.t.w.w.q.6.@.S h 2 : 7 t ~ ~ y.y.i.j.l.l.l.l.l.l.l.l.l.l.j.a.y.~ ! y.! 9 4 1 B &.,.2.q.w.e.r.t.t.",
"t.t.t.t.t.w.9.2.+.C a 5 w t y y / u.i.f.l.l.l.l.l.l.l.l.l.l.j.a.y.y.! 9 9 9 4 p S ,.e.r.r.t.t.t.t.t.",
"t.t.t.t.t.w.w.q.6.&.S m z w r t ^ u.i.j.l.l.l.l.l.l.l.l.x.x.j.a.u.^ t r e z N S =.7.r.r.r.t.t.t.t.t.",
"t.t.t.t.t.t.w.w.0.3.>.o.m q 3 r ! u.i.j.l.l.l.l.l.l.l.x.l.x.a.a.u.! r 3 q N &.,.2.w.r.r.r.t.t.t.t.t.",
"t.t.t.t.t.t.t.t.w.w.w.>...u > e Y ^ / i.f.f.f.f.a.j.a.j.a.a.a./ / R e 1 s ..<.e.e.r.t.t.t.t.t.t.t.t.",
"t.t.t.t.t.t.t.t.t.w.w.2.O.C f k 0 8 U U T T T Y T T T T T T R r e l c m S =.8.e.r.r.t.t.t.t.t.t.t.t.",
"t.t.t.t.t.t.t.t.t.t.w.w.,.+...h , O - - ; ; > - - - - > - ; ; > > u B O.:.4.w.r.r.t.t.t.t.t.t.t.t.t.",
"t.t.t.t.t.t.t.t.t.t.t.w.0.1.@.V @                             X X $ X.6.w.e.r.t.t.t.t.t.t.t.t.t.t.t.",
"t.t.t.t.t.t.t.t.t.t.t.t.w.9.,.O.V % % % % % % % & % & & & & & & = A @.7.e.e.r.t.t.t.t.t.t.t.t.t.t.t.",
"t.t.t.t.t.t.t.t.t.t.t.w.w.w.q.1.,.@.@.@.@.@.@.@.@.@.@.@.@.;.;.;.;.,.7.w.r.r.r.t.t.t.t.t.t.t.t.t.t.t.",
"t.t.t.t.t.t.t.t.t.t.t.t.t.t.t.t.t.t.t.t.t.t.t.t.t.t.t.t.t.t.t.t.r.t.t.t.t.t.t.t.t.t.t.t.t.t.t.t.t.t.",
"t.t.t.t.t.t.t.t.t.t.t.t.t.t.t.t.t.t.t.t.t.t.t.t.t.t.t.t.t.t.t.t.t.t.t.t.t.t.t.t.t.t.t.t.t.t.t.t.t.t."
};
